<svg width="1536" height="1024" version="1.1" xmlns="http://www.w3.org/2000/svg" desc="Created with imagetracer.js version 1.2.6" ><path fill="rgb(0,0,0)" stroke="rgb(0,0,0)" stroke-width="1" opacity="0" d="M 0 0 L 1536 0 L 1536 1024 L 0 1024 L 0 0 Z M 750 331 L 749 332 L 739 332 L 722 335 L 703 343 L 701 342 L 700 344 L 680 357 Q 678 360 677 358 L 676 361 L 670 365 L 658 380 L 652 391 L 650 392 L 650 394 L 642 411 L 639 424 L 639 426 L 637 433 L 636 449 L 636 451 L 635 455 L 637 454 L 638 470 L 641 482 L 652 507 L 653 508 L 651 505 L 650 508 Q 652 512 654 509 L 665 525 Q 681 545 708 555 Q 710 554 709 557 L 711 556 L 726 561 L 735 562 Q 736 565 738 563 Q 743 562 745 564 L 774 564 L 796 560 Q 819 553 836 539 L 859 514 L 870 493 L 876 475 L 877 464 L 878 463 L 878 453 L 879 452 L 879 440 L 878 439 L 877 426 Q 874 423 875 417 L 868 399 L 870 399 L 867 398 Q 862 386 854 377 L 856 376 Q 851 375 849 371 L 850 369 L 849 369 Q 831 348 803 338 Q 800 339 801 337 L 800 337 L 778 332 L 750 331 Z M 783 331 L 783 332 L 785 332 L 783 331 Z M 720 333 L 721 335 L 723 334 L 720 333 Z M 378 336 L 377 337 L 368 337 L 366 337 L 345 343 L 332 351 L 317 368 L 312 380 L 311 392 L 310 393 L 311 394 L 312 407 L 316 418 L 315 421 L 319 421 L 321 426 L 326 431 L 325 432 L 328 432 L 332 438 L 335 438 L 346 446 L 366 456 L 372 457 L 373 459 Q 369 458 370 461 L 372 460 L 375 461 L 376 462 Q 377 459 375 460 L 375 459 L 392 466 L 393 469 L 395 468 L 399 470 L 401 474 L 403 473 L 404 476 L 406 475 L 409 477 L 412 481 Q 411 484 414 485 L 414 484 L 414 482 Q 419 486 422 494 L 421 496 L 423 496 L 426 506 Q 428 519 424 527 Q 420 528 423 530 L 421 530 L 422 532 L 419 533 L 420 535 Q 415 542 406 545 L 401 547 L 389 548 L 388 549 L 379 549 L 369 547 Q 364 548 365 546 L 364 546 Q 353 544 347 538 Q 334 528 326 513 L 317 485 L 317 476 L 316 472 L 309 472 L 309 484 L 307 484 L 308 497 L 308 496 L 309 496 L 309 500 L 308 499 L 307 499 L 308 504 L 308 503 L 309 503 Q 311 509 307 508 L 308 512 L 308 511 L 309 511 L 309 516 L 307 516 L 307 518 L 309 518 Q 311 525 307 524 L 308 529 L 308 526 L 309 526 L 309 532 L 308 530 L 307 536 L 309 536 L 308 541 Q 311 542 309 548 L 309 550 Q 310 553 308 552 L 308 553 L 309 553 L 309 557 Q 312 558 311 556 L 313 556 L 313 554 L 317 554 L 327 548 L 336 549 L 342 552 Q 348 551 351 554 L 351 556 L 354 555 L 374 559 L 397 559 L 407 557 Q 421 553 431 545 Q 451 530 456 500 L 456 477 L 452 465 L 453 462 L 452 462 Q 446 451 437 444 L 438 442 L 437 442 L 435 442 L 429 437 Q 426 438 427 436 L 426 436 L 420 432 L 391 420 L 389 418 L 388 418 L 364 408 L 350 398 L 345 393 Q 341 391 344 390 L 343 389 L 339 383 Q 341 377 338 376 Q 338 365 343 361 Q 342 358 345 359 L 346 357 L 354 351 L 356 352 L 358 352 L 356 351 L 367 347 Q 371 345 370 349 L 372 348 L 375 349 L 374 348 L 375 346 L 383 346 L 383 348 L 386 347 L 386 349 Q 388 350 387 347 L 393 348 L 395 348 L 405 353 Q 407 352 406 356 L 408 355 L 411 356 Q 413 357 411 359 L 414 359 Q 423 368 427 383 L 426 386 Q 430 390 430 399 Q 431 401 436 400 Q 438 399 437 395 L 437 393 Q 436 387 438 386 L 437 384 Q 436 379 438 378 Q 436 376 437 371 L 437 369 L 437 344 L 438 343 L 436 336 L 435 339 L 426 343 Q 423 344 424 342 L 422 340 L 421 343 L 413 342 L 404 339 L 397 339 L 398 337 L 394 336 L 394 338 L 378 336 Z M 404 336 L 403 338 L 406 339 L 404 336 Z M 434 336 L 432 338 L 434 338 L 434 336 Z M 493 336 L 493 337 L 504 337 L 493 336 Z M 506 336 L 506 337 L 511 337 L 506 336 Z M 517 336 L 517 337 L 519 337 L 517 336 Z M 915 336 L 915 337 L 917 337 L 915 336 Z M 923 336 L 923 337 L 928 337 L 923 336 Z M 931 336 L 931 337 L 951 337 L 931 336 Z M 953 336 L 953 337 L 956 337 L 953 336 Z M 998 336 L 996 340 L 996 342 L 992 341 L 992 340 L 990 338 L 986 339 L 989 339 L 989 340 L 974 338 L 972 338 L 887 338 L 886 337 L 881 340 Q 880 346 882 346 L 904 346 L 905 353 L 905 361 L 904 362 L 905 364 L 905 366 L 904 369 Q 903 373 905 375 L 904 378 L 905 383 L 904 388 L 905 391 L 905 401 L 904 402 L 905 407 L 904 409 Q 903 413 905 415 L 904 416 L 904 424 L 905 431 L 904 433 L 905 441 L 904 444 L 905 449 L 905 451 L 904 453 L 905 457 L 905 463 L 904 464 L 904 472 L 904 474 L 905 479 L 904 482 L 905 485 L 905 487 L 904 491 L 905 495 L 904 500 L 905 503 L 903 508 Q 906 510 905 517 L 905 519 L 904 522 L 904 524 L 905 527 L 904 533 L 904 534 Q 906 533 905 536 L 905 538 L 904 540 L 905 543 Q 906 545 904 544 L 904 546 L 884 546 L 880 549 Q 879 554 883 555 L 885 554 L 928 554 L 929 555 Q 930 553 936 554 L 938 554 L 961 554 L 962 555 L 965 554 L 967 555 L 969 552 L 969 547 L 963 547 L 963 545 L 962 546 L 942 546 L 942 533 L 944 532 L 944 531 L 942 531 L 942 501 L 944 500 L 944 499 L 943 499 L 942 485 L 944 485 L 944 483 L 942 483 L 942 469 L 944 468 L 944 467 L 943 467 L 942 463 L 945 460 L 956 460 L 958 460 Q 963 458 962 462 L 964 461 L 964 463 L 967 462 Q 971 461 973 463 L 976 462 L 973 461 L 997 458 L 1009 454 L 1021 447 L 1030 439 L 1038 424 L 1041 414 L 1041 405 L 1044 404 L 1044 405 Q 1041 404 1042 407 L 1044 406 L 1044 408 L 1047 408 L 1045 405 Q 1044 402 1047 403 L 1046 401 L 1044 402 L 1042 403 Q 1041 396 1044 394 Q 1043 391 1042 393 Q 1039 375 1030 364 Q 1018 348 998 343 L 999 340 L 997 340 Q 996 337 999 338 L 998 336 Z M 1067 336 L 1067 337 L 1072 337 L 1067 336 Z M 1081 336 L 1081 337 L 1095 338 L 1047 338 L 1044 339 Q 1045 342 1043 341 L 1043 343 Q 1042 345 1045 344 L 1045 347 L 1048 348 L 1048 346 L 1064 346 L 1065 347 L 1067 346 Q 1069 347 1067 349 L 1068 353 L 1067 353 L 1068 356 L 1066 362 L 1066 366 L 1067 369 L 1065 369 Q 1064 371 1067 370 L 1066 374 L 1067 377 L 1067 379 L 1065 379 Q 1064 381 1067 380 L 1067 387 L 1066 387 L 1066 388 Q 1069 387 1067 393 L 1067 395 L 1066 395 L 1066 396 Q 1069 395 1067 401 L 1066 404 L 1067 409 L 1066 412 L 1067 417 L 1066 416 L 1065 418 L 1067 419 L 1065 420 L 1067 420 L 1067 427 L 1068 428 L 1067 433 L 1066 431 L 1065 435 L 1067 434 L 1066 436 L 1067 441 L 1066 440 L 1065 442 L 1068 444 L 1067 449 L 1066 447 L 1065 451 L 1067 450 L 1067 453 L 1067 457 L 1066 455 L 1064 456 L 1065 458 L 1067 459 L 1066 459 L 1066 460 Q 1069 459 1067 465 L 1065 465 Q 1063 469 1067 468 L 1066 467 L 1068 468 L 1067 473 L 1066 471 L 1065 474 L 1067 475 L 1066 475 L 1066 476 Q 1069 475 1067 481 L 1067 483 L 1065 483 Q 1064 485 1067 484 L 1067 499 L 1066 500 L 1067 505 L 1066 508 L 1067 509 L 1067 521 L 1065 521 Q 1064 525 1067 524 L 1067 531 L 1066 532 L 1068 540 Q 1066 541 1067 546 L 1066 545 L 1065 546 L 1050 546 L 1048 546 L 1046 547 L 1044 547 L 1044 546 L 1044 544 L 1042 548 L 1043 551 L 1042 554 L 1043 557 L 1044 553 L 1045 553 L 1043 558 L 1045 560 L 1047 559 L 1046 556 L 1048 556 L 1050 554 L 1063 554 L 1065 554 Q 1071 552 1073 555 L 1074 554 L 1088 554 L 1090 554 Q 1096 552 1096 556 L 1097 556 L 1098 554 L 1104 554 L 1105 556 L 1105 554 L 1136 554 L 1137 555 L 1138 554 L 1152 554 L 1154 554 L 1168 554 L 1168 556 L 1169 556 L 1170 554 L 1201 554 L 1201 481 L 1197 482 L 1199 482 Q 1200 485 1197 484 L 1197 482 L 1195 491 L 1194 488 L 1193 488 L 1194 493 L 1193 506 L 1190 518 L 1189 515 L 1187 520 L 1187 521 Q 1189 522 1188 520 L 1189 520 L 1181 536 Q 1177 541 1171 543 L 1161 545 Q 1155 547 1154 544 Q 1152 547 1146 545 L 1144 545 L 1140 544 L 1138 544 L 1130 544 L 1129 545 L 1128 544 L 1118 544 L 1116 544 L 1105 545 L 1111 546 L 1104 546 L 1104 447 L 1108 446 L 1109 448 L 1109 446 L 1116 446 L 1117 448 L 1130 448 L 1129 447 L 1132 448 Q 1136 449 1137 446 L 1137 448 L 1139 447 L 1146 449 L 1155 461 L 1160 481 L 1164 482 Q 1166 481 1165 477 L 1167 475 L 1165 472 L 1165 398 L 1160 399 L 1158 403 L 1159 408 Q 1155 409 1158 411 Q 1157 422 1152 430 L 1142 436 L 1109 437 L 1108 434 L 1105 436 L 1108 437 L 1106 437 L 1104 436 L 1104 347 L 1107 348 L 1110 346 L 1112 346 L 1116 347 Q 1117 345 1119 348 Q 1120 345 1125 346 L 1126 349 Q 1128 350 1127 347 L 1134 348 L 1133 348 L 1133 349 Q 1136 350 1135 347 L 1138 347 L 1139 349 L 1139 347 Q 1149 346 1156 349 L 1154 350 L 1157 350 L 1158 348 L 1163 350 L 1161 351 L 1165 352 L 1166 350 L 1172 354 L 1172 355 L 1169 353 L 1168 357 L 1170 356 L 1174 357 Q 1180 363 1181 373 L 1179 374 L 1181 376 L 1182 374 L 1185 388 Q 1183 395 1189 393 L 1190 395 L 1192 392 L 1191 386 L 1192 383 L 1191 382 L 1191 360 L 1191 358 Q 1190 352 1192 351 Q 1190 349 1191 344 L 1192 341 L 1191 338 L 1190 338 L 1136 338 L 1143 337 L 1143 336 L 1117 337 L 1128 337 L 1128 338 L 1096 338 L 1105 337 L 1081 336 Z M 1107 336 L 1107 337 L 1113 337 L 1107 336 Z M 979 337 L 979 338 L 983 338 L 979 337 Z M 464 338 Q 465 343 462 345 Q 464 347 471 346 L 473 346 L 487 346 L 487 347 L 487 546 L 466 546 L 465 547 L 461 547 L 461 554 L 471 554 L 472 555 L 474 554 L 496 554 L 497 555 L 502 554 L 503 556 L 503 555 L 506 554 Q 511 552 510 556 Q 512 554 514 557 L 515 556 L 513 555 L 567 554 L 569 554 Q 575 552 577 555 L 582 554 L 585 555 Q 586 553 592 554 L 594 554 L 608 554 L 609 555 L 610 554 L 631 554 L 631 489 L 632 488 L 631 484 L 631 482 L 631 480 L 624 480 L 624 487 L 623 488 L 623 494 Q 619 492 620 496 L 622 496 L 620 508 L 616 520 L 613 521 L 615 522 L 614 525 L 611 526 L 613 527 L 608 535 Q 604 540 597 543 L 580 546 L 577 545 L 575 546 L 527 546 L 530 545 L 527 544 L 525 540 L 527 535 L 525 535 L 526 533 L 525 531 L 525 529 L 527 528 L 527 527 Q 524 528 525 526 Q 528 524 526 523 L 527 519 L 526 519 L 525 518 L 526 515 L 525 510 L 525 508 L 526 505 L 527 503 Q 524 504 525 502 L 525 500 L 527 496 L 526 494 L 527 492 L 525 492 L 527 488 L 525 484 L 527 479 L 526 479 L 525 478 L 525 476 L 527 471 L 525 471 L 527 463 L 525 463 Q 524 457 527 456 L 525 455 L 526 453 L 525 451 L 525 449 L 527 448 L 525 447 L 527 440 L 525 439 L 525 437 Q 528 438 527 436 L 525 436 L 526 433 L 527 431 L 525 431 L 525 424 L 527 424 L 525 423 L 526 417 L 527 415 Q 524 416 525 414 L 527 408 L 525 407 L 525 405 Q 528 406 527 404 L 526 404 L 525 401 L 526 398 L 525 396 L 527 392 L 525 388 L 527 384 L 525 383 L 527 375 L 525 375 L 526 373 L 526 371 L 525 366 L 525 364 L 527 359 L 526 359 L 525 358 L 526 355 L 525 349 L 528 350 L 528 348 L 525 348 L 531 346 L 535 347 Q 540 345 549 346 Q 550 349 552 345 Q 553 338 552 338 L 464 338 Z M 1042 338 L 1043 340 Q 1044 337 1042 338 Z M 413 340 L 413 341 L 415 341 L 413 340 Z M 1015 347 L 1013 349 L 1015 349 L 1015 347 Z M 1045 347 L 1043 350 L 1045 352 L 1046 349 L 1045 347 Z M 1064 348 L 1064 350 L 1064 352 L 1066 352 Q 1068 347 1064 348 Z M 1141 348 L 1141 349 L 1143 349 L 1141 348 Z M 421 370 L 420 373 L 422 373 L 421 370 Z M 1038 374 L 1039 376 Q 1040 373 1038 374 Z M 310 385 L 309 392 L 310 392 L 310 385 Z M 1044 390 L 1044 392 L 1046 391 L 1044 390 Z M 1046 393 L 1044 397 L 1043 400 L 1044 401 L 1046 398 L 1046 396 L 1046 393 Z M 310 394 L 309 398 L 310 398 L 310 394 Z M 1043 408 L 1042 412 L 1043 412 L 1043 408 Z M 1167 410 L 1166 413 L 1167 413 L 1167 410 Z M 1157 412 L 1155 414 L 1157 414 L 1157 412 Z M 1044 414 L 1044 416 L 1046 415 L 1044 414 Z M 1038 426 L 1036 430 Q 1034 431 1037 432 L 1037 430 Q 1041 428 1038 426 Z M 324 429 Q 322 432 325 431 L 324 429 Z M 1167 431 L 1166 434 L 1167 434 L 1167 431 Z M 1138 432 L 1138 435 L 1144 434 L 1143 432 L 1141 433 L 1139 434 Q 1140 431 1138 432 Z M 1111 435 L 1111 436 L 1113 436 L 1111 435 Z M 1167 435 L 1166 438 L 1167 438 L 1167 435 Z M 636 442 L 634 444 L 636 444 L 636 442 Z M 450 456 L 451 458 Q 452 455 450 456 Z M 635 456 L 635 459 L 636 459 Q 637 455 635 456 Z M 998 458 L 995 459 L 995 460 Q 997 459 996 462 L 996 463 L 1000 460 Q 1001 457 998 458 Z M 987 460 L 987 461 L 990 461 L 987 460 Z M 945 461 L 943 463 L 949 463 L 951 463 L 955 462 L 945 461 Z M 978 461 Q 977 463 980 462 L 981 463 Q 982 460 978 461 Z M 637 465 L 636 469 L 637 469 L 637 465 Z M 878 467 L 878 469 L 880 468 L 878 467 Z M 308 477 L 307 481 L 308 481 L 308 477 Z M 418 487 L 416 489 Q 415 491 418 490 L 418 487 Z M 419 490 L 417 492 L 419 492 L 419 490 Z M 644 491 L 642 493 L 644 493 L 644 491 Z M 420 492 L 419 495 L 421 495 L 420 492 Z M 869 497 L 870 499 Q 871 496 869 497 Z M 1190 512 L 1189 515 L 1190 515 L 1190 512 Z M 425 513 L 424 519 L 425 519 L 425 513 Z M 453 517 L 452 520 L 453 520 L 453 517 Z M 308 520 L 307 523 L 308 523 L 308 520 Z M 854 522 L 852 525 L 854 524 L 854 522 Z M 1187 522 L 1184 524 Q 1186 527 1187 524 L 1187 522 Z M 608 530 L 608 532 L 610 531 L 608 530 Z M 844 531 L 844 533 L 846 532 L 844 531 Z M 839 537 L 837 539 L 839 539 L 839 537 Z M 837 539 Q 835 542 838 541 L 837 539 Z M 595 541 L 595 542 L 597 542 L 595 541 Z M 537 544 L 537 545 L 542 545 L 537 544 Z M 544 544 L 544 545 L 547 545 L 544 544 Z M 549 544 L 549 545 L 551 545 L 549 544 Z M 553 544 L 553 545 L 558 545 L 553 544 Z M 560 544 L 560 545 L 575 545 L 560 544 Z M 578 544 L 578 545 L 580 545 L 578 544 Z M 1046 544 Q 1044 547 1047 546 L 1046 544 Z M 822 549 L 821 551 L 823 550 L 822 549 Z M 495 555 L 493 557 L 495 557 L 495 555 Z M 565 555 Q 563 558 566 557 L 565 555 Z M 631 555 L 630 557 L 632 556 L 631 555 Z M 1091 555 L 1092 557 L 1095 556 L 1091 555 Z M 1183 555 L 1183 556 L 1185 556 L 1183 555 Z M 412 556 L 412 557 L 414 557 L 412 556 Z M 358 557 L 358 558 L 361 558 L 358 557 Z M 404 558 L 404 559 L 406 559 L 404 558 Z M 740 564 L 740 565 L 742 565 L 740 564 Z M 748 565 Q 748 569 750 566 L 748 565 Z M 753 565 L 753 566 L 755 566 L 753 565 Z M 760 565 L 760 566 L 769 566 L 760 565 Z M 478 592 Q 476 595 479 594 L 478 592 Z M 842 592 L 842 594 L 845 593 L 842 592 Z M 847 592 L 848 594 Q 849 591 847 592 Z M 870 592 L 869 594 L 873 594 L 870 592 Z M 932 592 L 928 593 L 928 595 L 924 595 Q 925 598 922 597 L 923 600 L 924 598 L 924 636 L 925 638 L 929 639 L 931 638 L 932 639 L 931 637 L 935 634 L 935 632 L 933 632 L 933 600 L 935 600 L 936 596 L 934 595 L 934 598 L 933 595 L 929 595 L 932 594 L 932 592 Z M 1046 592 L 1045 594 L 1041 595 L 1046 597 L 1047 594 L 1046 592 Z M 436 593 L 436 594 L 442 594 L 436 593 Z M 612 593 L 612 594 L 614 594 L 612 593 Z M 638 593 L 638 594 L 641 594 L 638 593 Z M 657 593 L 656 596 L 657 596 L 657 593 Z M 659 593 L 659 594 L 661 594 L 659 593 Z M 745 593 L 745 594 L 749 594 L 745 593 Z M 906 593 L 906 594 L 909 594 L 906 593 Z M 956 593 L 956 594 L 958 594 L 956 593 Z M 963 593 L 962 595 L 954 595 L 954 632 L 952 635 L 958 637 L 960 636 Q 964 638 963 634 L 964 634 L 963 637 L 965 637 L 967 634 Q 964 632 965 628 L 964 632 L 963 612 L 966 614 L 965 613 L 964 617 L 964 619 L 965 620 L 967 619 L 966 618 L 968 615 L 972 621 L 971 621 L 971 622 Q 973 621 972 624 L 974 623 L 984 636 L 989 637 L 992 636 L 992 594 L 991 595 L 984 595 L 984 593 L 983 616 L 983 618 L 983 620 L 977 614 Q 978 610 976 611 L 965 600 L 963 593 Z M 1022 593 L 1022 595 L 1024 594 L 1022 593 Z M 517 594 L 508 596 L 501 601 L 497 608 L 494 609 L 496 620 L 496 621 L 495 620 L 494 620 Q 493 623 496 622 L 499 629 L 507 635 L 514 636 L 516 638 L 529 635 L 532 633 Q 538 629 540 621 L 539 608 L 535 602 L 526 595 L 517 594 Z M 642 594 L 641 595 L 611 595 L 611 636 L 614 637 L 616 636 L 636 636 L 636 638 Q 638 639 637 636 L 642 636 L 644 633 L 645 636 L 646 633 L 646 631 L 645 628 L 644 632 L 642 628 L 640 627 L 640 628 L 621 628 L 621 627 Q 623 628 622 624 L 624 624 L 622 622 L 621 626 L 620 621 L 622 621 L 625 620 L 636 620 L 637 621 L 640 619 Q 641 612 639 611 L 622 611 L 621 612 L 620 605 L 622 605 L 624 605 L 625 603 L 643 603 Q 644 597 642 594 Z M 869 594 L 868 598 L 887 638 Q 891 639 894 636 L 912 598 L 912 595 L 904 595 L 892 620 Q 888 621 891 623 L 889 623 L 889 620 L 878 597 L 877 595 Q 870 597 869 594 Z M 901 594 L 901 598 L 901 597 Q 903 595 901 594 Z M 1030 594 L 1021 596 L 1016 599 Q 1010 603 1008 610 Q 1006 622 1011 629 L 1016 632 L 1018 636 L 1020 635 L 1029 637 L 1041 636 L 1047 633 L 1048 633 L 1048 613 L 1045 613 L 1047 612 L 1046 609 L 1048 608 Q 1049 605 1047 606 L 1046 604 L 1048 599 L 1047 599 L 1040 595 L 1030 594 Z M 435 595 L 435 636 L 442 637 L 438 638 L 440 638 L 442 638 L 444 638 L 444 617 L 446 616 L 444 612 L 445 610 L 454 627 L 458 629 L 469 611 L 470 611 Q 471 615 468 614 L 470 624 L 470 632 L 469 633 L 470 635 L 469 634 L 467 635 Q 469 637 474 637 L 471 638 L 476 639 L 479 637 L 478 636 L 480 633 L 479 632 L 479 597 L 478 595 L 469 595 L 468 599 L 458 613 Q 459 615 456 614 L 446 597 L 445 595 L 435 595 Z M 556 595 L 556 637 L 558 636 L 564 637 L 557 638 L 566 639 L 568 638 L 565 637 L 572 636 L 573 638 L 573 636 Q 583 636 589 631 Q 594 627 595 620 Q 596 611 593 606 Q 589 598 581 596 L 576 595 L 556 595 Z M 582 595 L 582 596 L 584 596 L 582 595 Z M 661 595 L 661 628 L 660 625 L 658 626 L 660 632 L 660 630 L 661 630 L 661 636 L 670 636 L 671 634 L 670 633 L 670 625 L 672 625 L 674 622 L 677 623 Q 681 625 678 627 L 680 627 L 684 634 Q 686 637 692 637 L 688 637 L 688 638 L 693 638 L 693 636 L 697 636 L 697 635 L 694 632 L 695 631 L 694 630 L 689 625 Q 690 622 687 623 L 686 621 L 690 619 L 695 611 L 695 607 L 692 599 L 683 595 L 661 595 Z M 715 595 L 713 597 L 713 617 L 713 619 L 713 636 L 715 636 L 717 639 L 717 637 L 720 636 Q 723 637 722 634 L 726 634 L 726 633 L 722 633 L 722 612 L 725 614 L 724 616 L 727 616 L 743 636 L 745 637 L 744 639 L 748 638 L 751 639 Q 753 638 751 637 L 752 635 L 751 632 L 751 599 L 752 598 L 752 595 L 744 595 L 742 597 L 742 620 L 722 597 Q 721 594 715 595 Z M 803 595 L 802 596 Q 799 595 800 598 L 801 601 L 800 604 L 801 605 L 801 616 L 799 620 L 801 620 L 801 623 L 800 625 L 801 629 L 801 631 L 800 635 L 804 637 L 802 637 L 802 638 Q 806 639 805 636 L 820 636 L 820 638 L 826 638 L 822 637 L 830 636 L 832 632 L 831 632 L 830 628 L 809 628 L 810 627 L 810 597 Q 808 594 803 595 Z M 845 595 L 845 638 L 846 638 L 847 636 L 854 636 L 855 634 L 854 625 L 854 623 Q 853 617 855 616 L 854 614 L 854 600 L 855 599 L 854 597 L 854 595 L 845 595 Z M 644 596 L 645 600 L 646 597 L 644 596 Z M 660 596 L 658 598 L 659 600 L 660 600 L 660 596 Z M 844 596 L 843 600 L 844 600 L 844 596 Z M 434 598 L 433 601 L 434 601 L 434 598 Z M 644 601 L 644 603 L 646 602 L 644 601 Z M 659 601 Q 660 603 659 612 L 660 612 L 660 602 L 659 601 Z M 923 602 L 922 607 L 923 607 L 923 602 Z M 844 605 L 843 617 L 844 617 L 844 605 Z M 610 607 L 609 610 L 610 610 L 610 607 Z M 622 607 L 621 610 L 622 610 L 622 607 Z M 953 607 L 952 614 L 953 614 L 953 607 Z M 974 607 L 974 608 L 976 608 L 974 607 Z M 636 608 L 635 610 L 639 610 L 636 608 Z M 982 608 L 980 612 L 982 611 L 982 608 Z M 597 611 Q 595 614 598 613 L 597 611 Z M 923 611 L 922 617 L 923 617 L 923 611 Z M 555 613 L 554 616 L 555 616 L 555 613 Z M 888 616 L 888 618 L 890 617 L 890 619 L 892 618 L 892 616 L 888 616 Z M 953 616 L 952 622 L 953 622 L 953 616 Z M 659 617 L 659 623 L 660 623 Q 661 616 659 617 Z M 434 618 L 433 622 L 434 622 L 434 618 Z M 969 618 L 967 620 L 969 620 L 970 621 L 969 618 Z M 555 619 L 554 622 L 555 622 L 555 619 Z M 923 619 L 922 623 L 923 623 L 923 619 Z M 730 621 Q 728 624 731 623 L 730 621 Z M 844 621 L 843 625 L 844 625 L 844 621 Z M 965 621 L 964 626 L 965 626 L 965 621 Z M 434 623 L 433 626 L 434 626 L 434 623 Z M 644 625 L 644 627 L 646 626 L 644 625 Z M 724 628 L 723 631 L 724 631 L 724 628 Z M 555 629 L 554 632 L 555 632 L 555 629 Z M 923 629 L 922 632 L 923 632 L 923 629 Z M 434 632 L 432 634 L 434 635 L 434 632 Z M 608 632 L 609 635 L 610 633 L 608 632 Z M 445 633 L 445 635 L 447 634 L 445 633 Z M 659 633 L 660 635 Q 661 632 659 633 Z M 1044 635 L 1045 638 L 1048 636 L 1044 635 Z M 640 637 L 640 638 L 643 638 L 640 637 Z M 664 637 L 664 638 L 666 638 L 664 637 Z M 721 637 Q 721 641 723 638 L 721 637 Z M 848 637 Q 847 639 851 638 L 852 639 Q 853 635 848 637 Z M 955 637 L 955 639 L 958 639 L 955 637 Z M 960 637 L 960 639 Q 959 641 962 640 L 961 639 L 963 638 L 960 637 Z M 986 637 L 986 638 L 988 638 L 986 637 Z M 1033 637 Q 1033 641 1035 638 L 1033 637 Z M 516 638 L 516 640 L 519 640 Q 520 636 516 638 Z " /><path fill="rgb(0,0,0)" stroke="rgb(0,0,0)" stroke-width="1" opacity="0" d="M 1129.5 337 L 1135 337.5 L 1129.5 338 L 1129.5 337 Z " /><path fill="rgb(0,0,0)" stroke="rgb(0,0,0)" stroke-width="1" opacity="0" d="M 746.5 342 L 757 342.5 L 756.5 344 L 761 343.5 L 758 342.5 L 771.5 342 L 790.5 346 L 801 350.5 L 800.5 352 L 803.5 351 Q 827.2 362.8 843 382.5 L 845 385.5 L 843 386.5 L 847 388.5 Q 857.2 401.3 862 419.5 L 860 420.5 L 863 422.5 L 866 437.5 L 866 455.5 L 862 476.5 L 852 499.5 Q 842.7 516.2 828.5 528 Q 818.7 537.2 805.5 543 L 789.5 548 L 779.5 548 L 775.5 547 L 771 543.5 Q 766 538.5 766 528.5 L 766 526.5 L 766 515.5 L 774 501 L 787.5 493 L 788 495 Q 790.7 496.1 790 493.5 L 789.5 492 L 807.5 486 L 809.5 487 L 810.5 484 L 816.5 482 L 830.5 471 L 832 471.5 Q 833.9 466.1 830.5 467 L 830.5 469 Q 829 466.5 827.5 470 L 821 471.5 L 821.5 473 L 806.5 479 L 804.5 479 L 801.5 480 L 801.5 479 L 803 478.5 L 800.5 478 L 798 479.5 Q 806.3 470.8 818.5 466 L 824 460.5 L 829.5 451 L 830.5 453 L 832 450.5 L 829 449.5 L 829.5 448 Q 825.1 446.5 826 449.5 L 821 453.5 L 819.5 456 L 811.5 463 L 809 463 L 808.5 465 L 806 464.5 L 809 456.5 L 806 455 Q 807 458 804 457 L 804 459.5 L 800 462 L 800 464 L 798 464 L 798 467 Q 795.3 465.9 796 468.5 L 793 473 L 787 477.5 L 781.5 485 L 775 489 L 773.5 492 L 764.5 498 L 764 482.5 Q 768.8 470.8 777.5 463 Q 786.8 454.3 801.5 451 L 803 451.5 Q 802.3 449.3 804.5 450 L 815.5 446 Q 817 448.5 818.5 445 L 823 444.5 L 817 442.5 L 818 440 Q 815 439 816 442 L 813.5 442 L 812.5 443 L 810 441.5 Q 810.8 444.1 807.5 443 L 805.5 443 L 802.5 444 L 804.5 441 L 806 441.5 L 806 439.5 L 816 428.5 L 817 423 L 804 431 Q 805.1 433.7 802.5 433 L 792.5 442 L 789.5 440 Q 786.8 441.3 789 442.5 L 789.5 444 L 791 443.5 L 784.5 449 L 785 447.5 L 790.5 433 L 792 432.5 L 786 432 L 777.5 446 L 776 446.5 L 776 448.5 L 770.5 457 Q 767.9 456.2 769 459.5 L 764.5 465 L 762 464 L 763 461.5 L 762 457.5 L 762 455.5 L 763 451.5 L 763 449.5 L 764 439.5 Q 767 432 773.5 428 Q 781.7 422.3 793.5 420 L 796 417.5 Q 796.9 414.1 791.5 416 L 789.5 416 Q 783.6 417.7 785 414 L 796 405.5 L 796.5 404 Q 798.3 406.8 800 402.5 L 799 399 Q 789.9 401.6 783.5 408 L 784 406.5 L 787 397.5 L 785 393.5 L 784.5 391 L 781 400.5 L 762.5 429 L 761 425.5 L 762 424.5 L 763 403.5 L 769 393 L 784 383.5 L 782 382.5 L 784 379.5 L 782.5 380 L 774.5 383 L 772 382 Q 773.5 385.7 770.5 385 L 768 386.5 L 773.5 376 L 775 375.5 L 775 373.5 L 776 368 Q 772.3 366.5 773 369.5 L 765 376.5 L 765 378.5 L 762.5 384 L 761 362.5 L 759 357.5 Q 761.8 355.8 757.5 354 L 756 358 L 754 358.5 L 757 360 L 756 362.5 L 756 364.5 L 755.5 366 L 754 365.5 L 754.5 368 L 756 367.5 L 756 375.5 L 753 376 L 753 377.5 L 755 377.5 L 754.5 391 L 753 386.5 L 754 381 L 751.5 382 L 742.5 366 L 741 371.5 L 746 386.5 L 745 386.5 L 742.5 383 L 736 379.5 L 737 377.5 L 733.5 377 L 733.5 378 L 735 378.5 L 732 379 L 733 382.5 L 732.5 384 L 734.5 385 L 736 384.5 L 747 396.5 L 747 399 L 750 400.5 L 753 411.5 L 752 413.5 L 753 415.5 L 752 418.5 L 753 423.5 L 751 427.5 L 751.5 429 L 742 416.5 L 742.5 415 Q 739.9 415.8 741 412.5 L 734 401.5 L 735 399 L 726.5 392 L 726 395.5 L 728 400.5 L 727.5 402 Q 730.1 401.2 729 404.5 L 732 409.5 L 728.5 407 L 717.5 401 L 715 401 L 716 404.5 L 725.5 414 L 729 416.5 Q 728.3 418.8 730.5 418 L 730.5 419 L 719.5 416 L 717 417 L 717 419 L 719 419 Q 717.9 421.7 720.5 421 L 733 427.5 L 731 428.5 L 733.5 429 L 735.5 428 L 747 437.5 L 745.5 438 L 744 437.5 Q 743.1 440.5 747.5 439 L 748.5 442 Q 751.1 441.2 750 444.5 Q 752.3 445.8 751 450.5 L 751 452.5 L 752 454.5 L 752 456.5 L 750 459.5 L 752 459.5 Q 753.9 464.9 750.5 464 L 750.5 465 L 752 465.5 L 749.5 466 L 748.5 464 L 750 463.5 L 746 463 L 737 449.5 L 737.5 448 L 734 445.5 L 735 443.5 L 732 442.5 L 726 433 L 723.5 432 L 722 433.5 L 723 436.5 L 725 441.5 L 722 443.5 L 725 445 L 725.5 443 L 727 447 Q 722.3 447.8 721 443.5 Q 723.3 442.2 720.5 441 L 719 441.5 Q 719.8 439.3 717.5 440 L 698.5 424 L 696 424 L 698 431.5 L 704.5 439 L 706 439.5 Q 703.7 440.8 706.5 442 Q 708.2 439.2 710 443.5 L 707.5 444 L 704.5 443 Q 699.2 443.8 697.5 441 L 696 441.5 L 696.5 440 L 692.5 441 L 691 440.5 Q 690.5 444.5 693.5 445 L 704.5 450 L 714 452 L 714.5 454 L 716.5 453 L 727 458.5 L 727.5 460 L 729.5 460 L 741 468.5 L 750 481.5 L 751 490.5 L 751 492.5 Q 752.5 496.9 749.5 496 Q 748 498.5 746.5 495 Q 733.7 488.8 726 477.5 L 727 475.5 L 725 474.5 L 724.5 476 L 719 468.5 L 719.5 467 L 717.5 468 L 716 465 Q 713.3 466.1 714 463.5 L 713 461 L 708 459 L 708 456 Q 703.9 457.7 705 453.5 L 704 453.5 L 704 458.5 L 708 465.5 L 704.5 463 L 700 461 Q 701.1 458.3 698.5 459 L 690 450.5 L 689.5 448 L 687 449 L 688 456.5 L 694.5 465 L 705.5 473 L 707 472.5 Q 704.8 473.7 707.5 475 L 709.5 475 Q 711.8 474.3 711 476.5 Q 713.2 474.7 715.5 479 L 717 479.5 L 714.5 480 L 703 475.5 Q 702.3 473.3 704.5 474 L 704.5 473 L 700.5 475 L 695.5 472 L 693.5 472 L 687.5 469 L 685.5 472 L 687.5 472 L 700 482.5 L 700.5 484 L 702.5 483 L 726.5 492 L 736 497 L 736.5 500 L 737.5 499 L 742.5 504 Q 744.8 503.3 744 505.5 L 749 514.5 L 750 526.5 L 748 538 Q 744.2 536.5 745 539.5 L 747 539.5 L 742.5 546 Q 737.8 549.3 728.5 548 L 710.5 543 L 695.5 534 L 691 529.5 L 690.5 528 Q 689 530.5 687.5 527 L 674 514.5 L 663 499.5 L 655 482.5 L 652 470.5 L 652.5 469 Q 649.8 469.6 651 463.5 L 649 455.5 L 649 439.5 L 650 438.5 L 651 426.5 L 654 416 L 656 415.5 L 655 412.5 Q 662.3 391.8 676.5 378 L 679 379 Q 677.8 373.5 681.5 372 L 684.5 370 Q 701.5 353 727.5 345 L 729.5 345 L 743.5 343 Q 745 345.5 746.5 342 Z M 748 343 L 748 344 L 752 344 L 748 343 Z M 765 343 L 765 344 L 768 344 L 765 343 Z M 787 347 L 787 348 L 791 348 L 787 347 Z M 716 350 L 716 352 L 718 351 L 716 350 Z M 754 352 L 754 353 L 756 353 L 754 352 Z M 819 363 L 819 364 L 821 364 L 819 363 Z M 693 364 L 691 365 L 689 368 L 693 367 L 693 364 Z M 829 370 L 829 373 L 831 372 L 829 370 Z M 832 375 L 832 376 L 834 376 L 832 375 Z M 838 378 L 836 380 L 838 381 L 838 378 Z M 677 379 L 675 381 L 677 381 L 677 379 Z M 741 380 L 741 382 L 743 381 L 741 380 Z M 671 389 L 672 391 Q 673 388 671 389 Z M 777 391 L 776 394 L 777 394 L 777 391 Z M 788 398 L 788 400 L 790 399 L 788 398 Z M 790 400 L 788 402 L 791 402 L 790 400 Z M 717 406 Q 715 409 718 408 L 717 406 Z M 791 422 L 792 423 L 793 424 Q 794 421 791 422 Z M 653 427 L 653 431 L 653 430 Q 655 428 653 427 Z M 736 430 L 737 432 L 738 432 L 736 430 Z M 865 438 L 864 444 L 865 444 L 865 438 Z M 702 440 L 701 442 L 704 442 L 702 440 Z M 734 440 L 733 443 L 734 443 L 734 440 Z M 696 447 L 696 448 L 698 448 L 696 447 Z M 825 448 L 823 450 L 825 450 L 825 448 Z M 696 450 L 695 453 L 696 453 L 696 450 Z M 815 456 L 815 458 L 817 457 L 815 456 Z M 653 464 L 652 468 L 654 467 L 653 464 Z M 656 469 L 653 473 L 656 471 L 656 469 Z M 697 469 L 696 472 L 698 472 L 697 469 Z M 817 472 L 816 474 L 818 473 L 817 472 Z M 655 473 L 654 477 L 655 477 L 655 473 Z M 824 478 L 821 480 L 824 480 L 824 478 Z M 697 480 L 696 484 L 699 484 L 697 480 Z M 782 480 L 782 482 L 784 481 L 782 480 Z M 749 481 L 749 487 L 750 485 L 749 481 Z M 853 492 L 854 494 Q 855 491 853 492 Z M 723 493 Q 723 497 725 494 L 723 493 Z M 846 505 L 844 507 L 846 507 L 846 505 Z M 747 515 L 747 519 L 748 519 Q 749 514 747 515 Z M 836 516 L 837 519 L 838 517 L 836 516 Z M 749 521 Q 746 522 748 524 L 747 528 L 749 527 L 749 521 Z M 832 522 L 829 523 L 830 525 L 832 524 L 832 522 Z M 693 529 L 694 531 Q 695 528 693 529 Z M 723 545 L 723 546 L 725 546 L 723 545 Z " /><path fill="rgb(0,0,0)" stroke="rgb(0,0,0)" stroke-width="1" opacity="0" d="M 947 346 L 949.5 347 L 968 347 L 969 351 L 972.5 352 L 975 350.5 L 974.5 349 Q 976 352.5 977.5 350 L 984 353 Q 982.9 355.7 985.5 355 L 988.5 360 L 992 361.5 L 996 367.5 L 994 371.5 L 996.5 376 Q 998.8 376.8 998 374.5 L 999 374.5 Q 1003.3 385.2 1003 400.5 L 1002 401.5 L 1002 413.5 L 1000 422.5 L 998.5 424 L 996 425.5 L 995 427.5 L 995 429.5 L 995.5 431 L 997 430.5 L 988.5 442 Q 986.3 441.3 987 443.5 L 981.5 447 L 980 446.5 Q 980.8 448.8 978.5 448 L 974.5 450 L 963.5 452 L 944.5 452 L 942 451 L 942 436.5 L 944 436 L 944 434.5 L 942 434.5 L 942 364.5 L 943.5 364 L 943.5 363 L 942 362.5 L 942 356 Q 944.7 357.1 944 354.5 L 942 354.5 L 942 347.5 L 943.5 347 L 946 347.5 L 946.5 349 L 947 346 Z M 949 347 L 948 349 L 950 350 L 949 347 Z M 961 348 L 961 349 L 967 349 L 961 348 Z M 999 378 L 998 381 L 999 381 L 999 378 Z M 944 386 L 943 389 L 944 389 L 944 386 Z M 947 449 L 945 451 L 947 451 L 947 449 Z " /><path fill="rgb(0,0,0)" stroke="rgb(0,0,0)" stroke-width="1" opacity="0" d="M 998.5 425 L 998 426.5 L 997.5 428 L 997 426.5 L 998.5 425 Z " /><path fill="rgb(0,0,0)" stroke="rgb(0,0,0)" stroke-width="1" opacity="0" d="M 1118.5 446 L 1122 446.5 L 1118.5 447 L 1118.5 446 Z " /><path fill="rgb(0,0,0)" stroke="rgb(0,0,0)" stroke-width="1" opacity="0" d="M 965.5 460 L 972 460.5 L 965.5 461 L 965.5 460 Z " /><path fill="rgb(0,0,0)" stroke="rgb(0,0,0)" stroke-width="1" opacity="0" d="M 762.5 465 L 763 467.5 L 762 467.5 L 762.5 465 Z " /><path fill="rgb(0,0,0)" stroke="rgb(0,0,0)" stroke-width="1" opacity="0" d="M 308.5 487 L 309 489.5 L 308 489.5 L 308.5 487 Z " /><path fill="rgb(0,0,0)" stroke="rgb(0,0,0)" stroke-width="1" opacity="0" d="M 513.5 603 Q 524.6 601.4 528 607.5 Q 532 611 530 620.5 L 524.5 627 L 518.5 629 L 515 628 Q 516.1 625.3 513.5 626 L 513.5 628 L 506 622.5 L 505 611.5 L 509.5 605 L 513.5 603 Z M 509 606 L 509 608 L 511 609 Q 512 605 509 606 Z M 511 610 Q 509 613 512 612 L 511 610 Z " /><path fill="rgb(0,0,0)" stroke="rgb(0,0,0)" stroke-width="1" opacity="0" d="M 571.5 603 L 578 604.5 L 575 605.5 L 580.5 608 Q 582.2 605.3 584 609.5 Q 586.3 612.7 585 619.5 L 581.5 625 Q 576.1 629.8 565 628 L 565 607.5 L 566 606.5 L 565 604 L 571.5 603 Z M 567 610 L 567 614 L 567 613 Q 569 611 567 610 Z M 567 618 L 566 624 L 567 624 L 567 618 Z " /><path fill="rgb(0,0,0)" stroke="rgb(0,0,0)" stroke-width="1" opacity="0" d="M 670.5 603 L 671 610.5 L 670 610.5 L 670.5 603 Z " /><path fill="rgb(0,0,0)" stroke="rgb(0,0,0)" stroke-width="1" opacity="0" d="M 672 603 Q 681.3 601.4 685 606.5 Q 686.5 610.9 683.5 610 Q 685.2 612 681.5 614 L 670.5 614 L 670 612.5 L 672 612.5 Q 670.5 607 673 605.5 L 672 603 Z M 676 604 L 676 605 L 678 605 L 676 604 Z M 681 605 L 681 606 L 683 606 L 681 605 Z " /><path fill="rgb(0,0,0)" stroke="rgb(0,0,0)" stroke-width="1" opacity="0" d="M 1026.5 603 Q 1036.1 601.4 1040 605.5 L 1040.5 608 L 1041 606 L 1045 607.5 L 1044.5 610 L 1043.5 608 Q 1041.8 611.1 1040 609.5 Q 1039.3 612.1 1042 611 L 1042 613 L 1032.5 613 L 1030.5 612 Q 1027.5 613.5 1029 619.5 L 1031 623 L 1036 623 Q 1034.3 627.1 1038.5 626 L 1037.5 628 L 1030.5 629 Q 1029.3 626.8 1024.5 628 L 1019 623.5 L 1018 620.5 L 1018.5 619 Q 1015.8 619.6 1017 613.5 Q 1018.3 607.8 1022.5 605 L 1026.5 603 Z M 1023 606 L 1022 609 L 1023 609 L 1023 606 Z M 1026 608 Q 1025 611 1028 610 Q 1029 607 1026 608 Z M 1021 622 L 1021 623 L 1023 623 L 1021 622 Z M 1028 622 L 1028 624 L 1030 623 L 1028 622 Z " /><path fill="rgb(0,0,0)" stroke="rgb(0,0,0)" stroke-width="1" opacity="0" d="M 1032.5 620 L 1033.5 622 Q 1030.7 622.7 1032.5 620 Z " /><path fill="rgb(0,0,0)" stroke="rgb(0,0,0)" stroke-width="1" opacity="0" d="M 1037.5 620 L 1038 622.5 L 1037.5 624 L 1037 622 L 1035 621.5 L 1037.5 620 Z " /><path fill="rgb(0,0,0)" stroke="rgb(0,0,0)" stroke-width="1" opacity="0" d="M 927.5 636 L 930 636.5 L 927.5 637 L 927.5 636 Z " /><path fill="rgb(247,247,247)" stroke="rgb(247,247,247)" stroke-width="1" opacity="0.8549019607843137" d="M 726.5 331 L 725.5 334 L 737.5 333 L 738.5 332 L 748.5 332 L 749.5 331 L 762.5 331 L 763.5 332 L 777.5 332 L 779 331.5 L 778.5 333 L 788.5 334 L 788.5 332 L 792 333.5 L 789 334.5 L 799.5 337 L 801 336.5 Q 800.3 338.8 802.5 338 L 819.5 346 L 821 345.5 L 820.5 347 L 822.5 348 L 823.5 346 L 824 347.5 L 823.5 349 L 835.5 357 L 837.5 356 L 837.5 357 L 836 357.5 L 848.5 369 L 850 368.5 L 849 370.5 L 853 373.5 L 852 371.5 L 854 372.5 L 853 374.5 L 856 375.5 L 854 376.5 L 865.5 394 L 867 393.5 L 866 395.5 L 867 398 L 870 398.5 L 868 399 L 875 416.5 Q 874.4 422.6 877 425.5 L 878 438.5 L 879 439.5 L 879 451.5 L 878 452.5 L 878 462.5 L 877 463.5 L 876 474.5 L 868 497 Q 870.7 495.9 870 498.5 L 868 499.5 Q 870.3 498.2 867.5 497 L 858 514.5 L 858.5 516 Q 856.8 513.3 855 517.5 Q 854.3 519.8 856.5 519 L 856.5 520 L 854.5 519 L 852 522.5 L 854.5 521 L 856 522.5 L 854 522.5 L 853 524.5 L 853.5 526 L 852 525.5 L 851.5 527 L 851 525.5 L 852 523.5 L 848 526.5 L 850 527.5 L 848.5 528 Q 847.3 525.8 846 528.5 L 848 531.5 L 844 532.5 L 843.5 531 Q 838.7 533.5 840.5 536 Q 839.3 533.8 838 536.5 L 839 539 L 837 539.5 L 837.5 541 L 835.5 542 L 836 540.5 Q 836.8 538.3 834.5 539 L 821 548.5 L 823 549.5 L 820.5 551 L 818.5 550 Q 805.1 558.6 786.5 562 L 780.5 562 L 773.5 564 L 744.5 564 Q 743 561.5 737.5 563 Q 736 565.5 734.5 562 L 725.5 561 L 710.5 556 L 709 556.5 Q 709.8 554.3 707.5 555 L 698.5 551 L 697 551.5 L 697.5 550 L 691.5 547 L 690 547.5 L 690.5 546 Q 688.3 545.3 689 547.5 L 688 547.5 L 689 545.5 L 675.5 535 L 674 535.5 Q 676.3 534.3 673.5 533 L 672 533.5 Q 674.3 532.2 671.5 531 L 670 531.5 L 671 530.5 L 665 524.5 L 659.5 517 L 658.5 519 L 656 514.5 L 656 512.5 L 655.5 511 L 654 511.5 Q 656.3 510.3 653.5 509 Q 651.8 511.7 650 507.5 L 649 503.5 L 650 501.5 Q 641.6 488.4 638.5 470 L 637 470.5 Q 639.5 469 638 463.5 L 637 462.5 L 636.5 454 L 635 454.5 L 636 450.5 L 636 448.5 Q 637.9 443.1 634.5 444 L 635.5 442 L 636.5 444 L 637 432.5 L 636.5 431 L 638 431.5 Q 636.8 426.7 639 425.5 L 639 423.5 L 642 410.5 L 650 393.5 L 649.5 392 L 652 390.5 L 659 378.5 L 658.5 377 L 659.5 378 L 663 374.5 L 670 365 L 676 360.5 L 676.5 358 Q 678 360.5 679.5 357 L 700 343.5 L 700.5 342 L 702.5 343 L 707 340.5 L 707 338.5 L 707.5 337 L 708 338.5 L 707.5 340 L 721 335.5 L 720 333 L 723 333.5 L 721 334.5 L 724.5 335 Q 722.8 333 726.5 331 Z M 747 342 Q 745 345 744 343 L 730 345 L 728 345 L 725 346 L 726 349 L 724 349 L 722 349 L 724 348 L 724 347 L 716 350 L 718 350 L 717 352 L 716 350 L 707 354 L 707 356 L 706 355 L 703 356 Q 700 357 702 359 L 701 358 L 692 363 L 691 365 L 693 364 L 693 367 L 690 368 L 688 367 Q 685 368 687 370 L 687 371 L 686 370 L 685 370 Q 682 369 683 372 L 679 375 L 679 379 L 677 379 Q 678 382 676 381 L 674 381 L 661 400 L 662 402 L 662 403 L 661 401 L 655 413 L 656 416 L 654 416 L 653 422 L 655 422 L 654 424 L 653 422 L 649 440 L 649 456 L 651 464 Q 650 470 653 469 L 652 468 L 653 464 L 654 467 L 652 471 L 653 473 L 653 472 L 656 470 L 654 473 L 656 478 L 654 478 L 661 496 L 663 495 L 662 497 L 667 506 L 669 505 L 668 507 L 672 509 L 670 509 L 674 515 L 676 514 L 677 517 L 677 516 L 677 514 L 679 515 L 677 518 L 685 525 L 686 524 L 688 526 L 686 527 L 688 527 Q 689 530 691 528 L 691 530 L 693 529 Q 695 528 694 531 L 694 533 Q 703 540 716 545 L 719 544 L 719 546 L 723 545 L 725 546 L 722 547 L 729 548 Q 738 549 743 546 L 744 544 L 744 542 L 746 542 L 745 540 Q 744 537 748 538 Q 750 535 749 528 L 748 528 L 747 525 L 749 521 Q 750 510 744 506 Q 745 503 743 504 L 741 504 L 738 503 L 740 502 Q 738 497 737 500 L 736 497 Q 725 490 709 486 L 709 488 Q 706 487 708 486 L 706 484 L 703 485 L 705 485 L 705 486 L 702 485 L 700 482 L 699 484 L 697 484 L 696 481 L 697 479 L 695 480 L 693 480 L 695 479 L 694 478 L 692 478 L 692 477 L 688 472 L 686 472 L 688 469 L 695 473 L 697 469 L 698 472 L 696 473 L 700 474 L 702 474 L 705 473 L 696 465 L 694 466 L 694 465 L 688 457 L 687 449 L 690 448 L 690 451 Q 692 455 694 452 L 693 454 L 699 459 Q 701 458 700 461 L 705 463 L 707 465 L 704 459 L 704 454 L 705 454 Q 704 457 708 456 L 709 456 L 708 459 L 713 461 L 714 464 L 716 467 L 718 466 L 720 468 L 719 470 L 728 477 L 727 476 L 726 478 Q 734 489 747 495 L 750 496 Q 753 497 751 493 L 750 493 L 751 491 L 751 484 L 749 487 L 748 487 Q 747 482 749 481 L 748 477 L 747 479 L 746 479 L 747 477 L 746 475 L 745 475 L 745 474 L 741 469 L 730 460 L 728 460 L 727 459 L 722 455 L 720 456 L 720 455 L 716 453 L 716 455 L 714 452 L 711 451 L 708 452 L 706 452 L 708 451 L 700 447 L 698 448 L 695 448 L 698 447 L 694 445 Q 691 445 691 441 L 693 441 L 698 439 L 699 442 L 702 440 L 704 442 L 700 443 L 705 443 L 708 444 L 710 444 Q 708 439 707 442 Q 704 441 706 440 L 705 439 L 698 432 L 696 424 L 699 424 L 718 440 Q 720 439 719 442 L 722 440 L 724 441 L 723 437 L 722 434 L 724 432 L 726 433 L 733 443 L 734 440 L 734 443 L 736 443 L 734 446 L 738 448 L 737 450 L 740 455 Q 741 457 743 455 L 742 457 L 746 463 L 751 464 Q 754 465 752 460 L 749 462 L 750 460 L 749 458 L 751 458 Q 753 459 752 457 L 752 455 L 751 453 L 751 451 Q 752 446 750 445 Q 751 441 749 442 L 748 439 Q 743 440 744 438 L 746 438 L 747 438 L 738 430 L 738 432 L 735 431 L 737 430 L 736 428 L 734 429 L 731 429 L 733 428 L 721 421 Q 718 422 719 419 L 717 419 L 717 417 L 720 416 L 727 418 Q 730 419 729 417 L 728 417 Q 725 416 727 415 L 719 407 L 716 408 L 717 406 L 716 403 L 714 406 L 713 406 L 715 401 L 713 402 L 714 400 L 719 402 L 721 401 L 721 403 Q 723 404 722 402 L 723 402 L 722 404 L 725 405 L 728 401 L 727 397 L 725 397 L 726 393 L 729 394 L 730 393 L 729 395 L 735 399 L 734 402 L 741 413 Q 740 416 743 415 L 742 417 L 751 428 L 753 424 L 752 419 L 753 416 L 752 414 L 753 412 L 750 401 L 749 401 L 747 401 L 749 400 L 749 399 Q 746 400 747 397 L 738 387 L 737 388 L 737 387 L 736 385 L 735 385 L 733 384 L 733 383 L 732 379 L 735 379 L 733 378 L 738 376 L 736 379 L 738 381 L 740 380 L 740 382 Q 742 383 741 380 L 743 380 L 741 372 L 743 366 L 744 369 L 746 368 L 745 370 L 752 382 L 754 381 L 753 387 L 755 391 L 755 378 L 753 378 L 753 376 L 756 376 L 756 368 L 753 369 L 754 366 L 756 366 L 756 365 L 756 363 L 757 360 L 754 359 L 756 358 L 759 353 L 760 355 L 759 358 L 761 363 L 763 384 L 765 379 L 763 379 L 767 376 Q 769 375 767 374 L 769 374 L 773 370 Q 772 367 776 368 L 775 373 L 776 375 L 774 376 L 768 387 L 771 385 Q 774 386 772 382 L 775 383 L 783 380 L 784 380 L 782 383 L 784 384 L 781 385 Q 778 386 780 388 L 779 387 L 769 393 L 763 404 L 762 425 L 761 427 L 764 425 L 765 426 L 767 422 L 767 420 Q 768 417 770 419 Q 774 414 776 407 L 781 401 L 785 391 L 785 394 L 787 398 L 784 407 L 784 408 L 791 403 L 789 402 L 788 400 Q 787 397 790 398 L 792 402 L 799 399 L 800 403 Q 798 407 797 404 L 796 406 L 793 408 L 787 414 L 788 415 L 785 414 Q 784 418 790 416 L 792 416 Q 797 414 796 418 L 794 420 Q 782 422 774 428 Q 767 432 764 440 L 763 450 L 763 452 L 762 456 L 762 458 L 763 462 L 762 464 L 765 465 L 769 460 Q 768 456 771 457 L 774 453 L 773 451 L 775 448 L 774 450 L 775 451 L 776 449 L 776 447 L 780 444 L 779 442 L 780 440 L 781 442 L 782 440 L 781 438 L 783 438 Q 785 437 783 436 L 785 436 L 784 434 L 786 434 L 786 432 L 792 433 L 791 433 L 791 435 L 790 434 L 788 441 L 791 439 L 790 441 L 793 442 L 798 438 L 802 434 L 801 433 L 803 433 Q 805 434 804 431 L 817 423 L 816 429 L 806 440 L 808 443 Q 811 444 810 442 L 813 443 L 814 442 L 816 442 Q 815 439 818 440 L 817 443 L 823 444 L 824 444 Q 823 446 819 445 Q 816 446 818 448 L 816 446 L 805 450 Q 802 449 803 452 L 802 451 Q 787 454 778 463 Q 769 471 764 483 L 765 498 L 775 491 Q 774 488 777 489 L 776 488 L 778 488 L 782 485 L 784 482 L 782 483 L 782 482 Q 781 479 784 480 L 786 480 L 787 478 L 793 473 L 792 471 L 796 469 Q 795 466 798 467 L 798 464 L 800 464 L 800 462 L 804 460 L 804 457 Q 807 458 806 455 L 809 457 L 807 464 L 809 465 Q 808 462 812 463 Q 814 462 812 461 Q 814 462 816 459 L 815 456 L 818 457 L 820 456 L 821 454 L 825 451 L 824 450 L 825 448 L 825 450 L 826 450 Q 825 447 830 448 L 832 452 L 832 454 L 830 451 L 824 461 Q 820 462 823 464 L 822 463 Q 815 470 806 473 L 804 477 L 808 478 L 817 475 L 815 474 L 818 472 L 818 474 L 822 473 L 821 472 Q 828 472 831 467 Q 834 466 832 472 L 831 471 L 829 472 Q 824 474 827 476 L 826 475 Q 823 476 825 478 L 824 480 L 821 479 L 814 483 L 814 485 L 811 484 L 810 487 L 807 486 L 807 488 L 806 487 L 795 490 L 795 492 L 794 491 L 790 492 L 790 494 Q 791 496 788 495 L 788 493 L 782 496 L 782 498 L 781 497 L 774 501 L 766 516 L 766 527 L 766 529 Q 766 539 771 544 L 776 547 L 780 548 L 790 548 L 798 546 L 797 545 L 799 545 Q 811 542 820 535 Q 822 534 820 533 L 821 531 L 821 533 L 829 528 L 828 527 L 830 527 L 832 524 L 830 525 L 829 523 L 832 522 L 832 524 L 837 520 L 836 516 L 838 516 L 836 515 L 838 514 Q 841 516 837 518 L 838 519 L 844 511 L 841 512 L 845 508 L 846 509 L 850 503 L 848 500 L 851 501 L 854 495 L 853 495 L 852 493 L 854 492 L 855 494 L 862 477 L 861 473 L 863 473 L 865 464 Q 867 457 864 456 L 865 454 L 865 456 L 866 456 L 866 438 L 863 423 L 860 421 L 862 420 L 856 404 L 853 403 L 854 401 L 853 397 L 852 399 L 851 399 L 852 397 L 847 389 L 842 388 L 845 386 L 839 378 L 838 381 Q 834 379 838 378 L 832 371 L 830 373 L 828 371 L 830 370 Q 829 367 828 369 L 828 368 L 815 358 L 815 360 Q 812 359 814 358 L 810 355 L 810 357 Q 807 356 809 355 L 804 351 L 801 352 L 800 349 L 797 350 L 799 351 L 798 351 L 794 350 L 797 349 L 794 347 L 791 348 L 786 348 L 791 347 L 772 342 L 758 343 L 761 344 L 757 344 L 757 343 L 747 342 Z M 744 380 L 741 383 L 743 383 L 745 387 L 746 387 L 744 380 Z M 728 402 L 728 404 L 727 403 L 725 406 L 730 408 L 730 406 L 729 406 L 729 405 Q 730 401 728 402 Z M 788 441 L 788 445 L 790 445 L 788 441 Z M 805 441 L 803 443 L 806 443 L 805 441 Z M 726 443 L 725 445 L 723 446 L 727 447 L 726 443 Z M 786 445 L 786 448 Q 789 447 786 445 Z M 749 464 L 750 466 L 752 466 L 749 464 Z M 763 465 L 762 468 L 763 468 L 763 465 Z M 654 473 L 653 477 L 654 477 L 654 473 Z M 706 473 L 705 474 Q 702 473 703 476 L 708 478 L 710 478 L 708 477 L 710 476 L 711 477 Q 712 474 710 475 Q 708 472 707 476 L 706 473 Z M 802 476 L 800 478 L 804 479 L 805 479 L 802 476 Z M 712 477 L 710 479 L 715 480 L 717 480 L 716 479 L 712 477 Z M 750 481 L 749 484 L 750 484 L 750 481 Z M 750 521 L 749 527 L 750 527 L 750 521 Z M 846 529 L 844 531 L 846 531 L 846 529 Z " /><path fill="rgb(247,247,247)" stroke="rgb(247,247,247)" stroke-width="1" opacity="0.8549019607843137" d="M 782.5 331 L 785 331.5 L 782.5 332 L 782.5 331 Z " /><path fill="rgb(247,247,247)" stroke="rgb(247,247,247)" stroke-width="1" opacity="0.8549019607843137" d="M 377.5 336 L 393.5 338 L 393.5 336 Q 398 335 399 337.5 L 397 337.5 Q 396.5 340.5 403.5 339 L 403 337.5 L 403.5 336 L 405.5 339 L 404 339.5 L 411.5 341 L 414.5 340 L 414.5 341 L 412 341.5 L 418.5 342 L 420 341.5 L 419.5 343 L 422 341.5 L 420.5 339 L 424 341.5 Q 423.3 343.8 425.5 343 L 435 339 L 435.5 336 L 438.5 343 L 440 343.5 L 438.5 344 L 437 343.5 L 437 368.5 L 438 369.5 Q 435.5 371 437 376.5 L 437 378.5 L 438 385.5 Q 435.5 387 437 392.5 L 437 394.5 Q 435.1 399.9 438.5 399 L 438.5 400 L 436.5 399 L 431.5 400 L 430 398.5 L 428 387.5 L 426 385.5 L 427 382.5 L 425.5 379 L 424 379.5 L 425 376.5 L 422.5 372 L 420 373 L 419 368.5 L 420 366.5 L 418 366.5 L 418 364.5 L 413.5 359 L 411 358.5 Q 413.3 357.3 410.5 356 L 407.5 355 L 405 356.5 L 406 353 L 394.5 348 L 392.5 348 L 387 347 Q 388.1 349.7 385.5 349 L 382.5 348 L 381 348.5 L 382.5 346 L 374.5 346 L 374 347.5 L 375.5 347 L 377 347.5 L 375 348.5 L 375.5 350 L 371.5 348 L 370 348.5 Q 370.9 345.5 366.5 347 L 358 349.5 L 359.5 352 L 357.5 352 L 353.5 351 L 346 356.5 L 344.5 359 Q 342.3 358.3 343 360.5 Q 337.8 365.3 338 375.5 Q 340.5 377 339 382.5 L 341.5 388 L 343 387.5 L 342.5 389 L 344 389.5 Q 341.5 391 345 392.5 L 349.5 398 L 351.5 397 Q 349.8 399 353.5 401 L 355 400.5 Q 352.8 401.7 355.5 403 L 369.5 410 L 371 409.5 L 370.5 411 L 373.5 410 L 376 410.5 L 374.5 413 L 379.5 415 L 381 414.5 L 380.5 416 L 387.5 418 L 389 417.5 L 390.5 420 L 412.5 429 L 412.5 427 L 416 429.5 L 415.5 431 L 425.5 436 L 427 435.5 Q 426.3 437.8 428.5 437 Q 429.8 434.8 431 437.5 L 430.5 439 L 436.5 442 L 438 441.5 L 439 443.5 L 438 444.5 L 445 451.5 L 448.5 457 L 451 456 L 450.5 458 L 449 457.5 L 451.5 462 L 453 461.5 L 452 464.5 L 456 476.5 L 456 499.5 L 452 515.5 L 446 527.5 L 446.5 529 Q 445.3 526.8 444 529.5 L 443 531.5 L 445 532.5 L 443.5 533 L 442 532.5 L 441 534.5 L 441.5 536 L 440.5 535 L 433 542.5 L 433.5 544 Q 432 541.5 430.5 545 L 412.5 555 L 397 558.5 L 399 559.5 L 397.5 560 L 396.5 559 L 373.5 559 L 372 559.5 L 372.5 558 L 353.5 555 L 350.5 556 L 350.5 554 L 346.5 556 L 347.5 554 L 349 553.5 L 332.5 549 L 329.5 551 L 328.5 549 L 330.5 549 L 332 548.5 L 326.5 548 L 317 553.5 L 317.5 555 L 313 554 L 312.5 556 L 311 555.5 Q 311.7 558.1 309 557 L 309 553 L 307.5 553 L 307.5 552 Q 310.1 552.8 309 549.5 L 308 549.5 L 307.5 551 L 307 549.5 Q 310.5 548 309 541.5 L 308 541.5 L 307.5 543 L 307 541.5 Q 310 540.5 309 535.5 L 307 535.5 L 307.5 530 L 308.5 532 L 309 525.5 L 308 525.5 L 307.5 529 L 307 524 Q 310.5 525.1 309 517.5 L 307 517.5 L 307 516 L 309 515.5 L 309 510.5 L 308 510.5 L 307.5 512 L 307 508 Q 311 509.4 309 502.5 L 308 502.5 L 307.5 504 L 307 498.5 L 308 498.5 L 308.5 500 L 309 495.5 L 308 495.5 L 307.5 497 L 307 484 L 309 483.5 L 309 472 L 315.5 472 L 317 475.5 L 317.5 485 Q 318.8 482.7 320 485.5 L 319.5 487 L 318.5 485 L 318 488.5 L 321.5 500 Q 322.8 497.7 324 500.5 L 323 504.5 Q 328.3 521.7 340.5 532 L 342 531.5 Q 339.8 532.8 342.5 534 L 344 533.5 L 343 534.5 L 346.5 538 L 348.5 537 L 349.5 540 L 361.5 545 L 363 544.5 L 362.5 546 L 364.5 545 L 365 547 Q 369.5 548.7 377.5 548 L 379 547.5 L 378.5 549 L 387.5 549 L 388.5 548 L 400.5 547 L 412 541.5 L 411.5 540 L 413.5 541 L 417.5 536 L 416 535.5 L 418.5 534 L 420 534.5 L 419 532.5 L 425 524.5 Q 427.5 517 426 505.5 L 424 505.5 L 425 501.5 L 423 496 L 419 495 Q 420.5 491.2 417.5 492 L 417.5 490 Q 415.3 490.8 416 488.5 L 417 485.5 L 414.5 483 L 413.5 485 L 410.5 479 L 409.5 481 L 408 478.5 L 408.5 477 L 406.5 478 L 403 475.5 Q 405.3 474.3 402.5 473 L 401 473.5 L 399.5 471 L 398 471.5 L 398.5 470 L 396.5 471 L 395.5 468 L 392.5 469 L 390.5 468 L 389 468.5 L 392 466.5 L 381.5 461 L 376 460 L 375.5 462 L 371.5 460 L 370 460.5 Q 369.2 457.9 372.5 459 L 371.5 457 L 365.5 456 L 359.5 453 L 356 453.5 L 357.5 451 L 354.5 452 L 354.5 450 L 342.5 444 L 341 444.5 L 341.5 443 L 334.5 438 L 332 438 L 327.5 432 L 323 431 L 324 428.5 L 319 421 Q 315.2 422 314 419.5 L 314.5 417 L 316 417.5 L 312 406.5 L 311 393.5 Q 307.5 392 309 385.5 L 310 385.5 L 310.5 392 Q 310.3 382.8 313 376.5 L 312.5 375 L 314 375.5 L 316 369.5 L 315.5 368 L 317 368.5 L 316 366.5 L 319 365.5 L 318.5 364 L 316.5 365 L 316.5 364 L 318.5 363 L 319.5 364 L 323 360.5 L 326 356.5 L 325 354.5 L 326 354.5 L 326.5 356 L 337 347.5 L 336.5 346 L 338.5 347 Q 342.7 342.7 350 341.5 L 348 340.5 L 349.5 340 L 351.5 341 L 351.5 339 L 355.5 340 L 359 338.5 L 358.5 337 L 363.5 338 L 365.5 337 L 367.5 337 L 376.5 337 L 377.5 336 Z M 309 487 L 308 490 L 309 490 L 309 487 Z M 419 487 Q 417 491 420 494 L 422 495 L 419 487 Z " /><path fill="rgb(247,247,247)" stroke="rgb(247,247,247)" stroke-width="1" opacity="0.8549019607843137" d="M 433.5 336 L 434 338 L 432 337.5 L 433.5 336 Z " /><path fill="rgb(247,247,247)" stroke="rgb(247,247,247)" stroke-width="1" opacity="0.8549019607843137" d="M 492.5 336 L 504 336.5 L 492.5 337 L 492.5 336 Z " /><path fill="rgb(247,247,247)" stroke="rgb(247,247,247)" stroke-width="1" opacity="0.8549019607843137" d="M 505.5 336 L 511 336.5 L 505.5 337 L 505.5 336 Z " /><path fill="rgb(247,247,247)" stroke="rgb(247,247,247)" stroke-width="1" opacity="0.8549019607843137" d="M 516.5 336 L 519 336.5 L 516.5 337 L 516.5 336 Z " /><path fill="rgb(247,247,247)" stroke="rgb(247,247,247)" stroke-width="1" opacity="0.8549019607843137" d="M 914.5 336 L 917 336.5 L 914.5 337 L 914.5 336 Z " /><path fill="rgb(247,247,247)" stroke="rgb(247,247,247)" stroke-width="1" opacity="0.8549019607843137" d="M 922.5 336 L 928 336.5 L 922.5 337 L 922.5 336 Z " /><path fill="rgb(247,247,247)" stroke="rgb(247,247,247)" stroke-width="1" opacity="0.8549019607843137" d="M 930.5 336 L 951 336.5 L 930.5 337 L 930.5 336 Z " /><path fill="rgb(247,247,247)" stroke="rgb(247,247,247)" stroke-width="1" opacity="0.8549019607843137" d="M 952.5 336 L 956 336.5 L 952.5 337 L 952.5 336 Z " /><path fill="rgb(247,247,247)" stroke="rgb(247,247,247)" stroke-width="1" opacity="0.8549019607843137" d="M 973.5 336 L 973.5 338 L 988.5 340 L 988.5 339 L 986 338.5 L 989.5 338 L 992 339.5 L 991.5 341 L 995.5 342 L 994.5 340 L 993 339.5 L 994.5 339 L 996 339.5 L 995 336.5 L 1000 336.5 L 997 338 L 997.5 340 L 999 339.5 L 1000 341.5 L 998 341.5 Q 997.2 344.1 1000.5 343 L 1010 347 L 1010.5 345 L 1011 346.5 L 1010.5 348 L 1012.5 347 L 1015 347.5 L 1016 349.5 Q 1013.7 350.8 1016.5 352 Q 1025.3 355.7 1030 363.5 L 1036.5 375 L 1039 374 L 1038.5 376 L 1037 375.5 Q 1040.8 382.8 1041.5 393 L 1042.5 392 Q 1044.3 395.1 1046 393.5 L 1045 396.5 L 1046 398.5 L 1043 400.5 L 1044 398.5 L 1044 396.5 L 1043.5 394 Q 1040.9 396.4 1042 402.5 L 1043.5 402 L 1045.5 401 L 1046.5 403 Q 1044.3 402.3 1045 404.5 L 1047 407.5 L 1043 408 L 1042.5 412 L 1042 408.5 L 1042 406.5 Q 1041.3 404.3 1043.5 405 L 1043.5 404 L 1041 404.5 L 1041 413.5 L 1037 425.5 Q 1041 427.5 1037 429.5 L 1036.5 432 L 1034 430.5 L 1030 439 L 1021 446.5 L 1023 447.5 L 1021.5 448 L 1019.5 447 L 1013 451.5 L 1013.5 453 L 1011.5 452 L 1009 453.5 Q 1011.3 454.8 1008.5 456 L 1008.5 454 L 997 457.5 L 1000 458 L 999 460.5 Q 1001.8 462.2 997.5 464 L 994 461.5 L 996 461.5 Q 996.8 459.3 994.5 460 L 994.5 459 L 997 458.5 L 991.5 458 Q 984.1 461.1 973 460.5 L 976 461.5 L 972.5 463 Q 971.3 460.7 966.5 462 L 964 463 L 963.5 461 L 962 461.5 Q 962.9 458.1 957.5 460 L 955.5 460 L 944 460.5 L 955 461.5 L 950.5 463 L 948.5 463 Q 943.7 464.3 942.5 462 L 942 466.5 L 944 466.5 L 944 468 L 942 468.5 L 942 482.5 L 944 482.5 L 943.5 485 L 942 484.5 L 942.5 499 L 944 498.5 L 944 500 L 942 500.5 L 942 530.5 L 944 530.5 L 944 532 L 942 532.5 L 942 546 L 962 545.5 L 961.5 544 L 963 547 L 969 547 L 969 551.5 L 966.5 555 L 964.5 554 L 961.5 555 L 960.5 554 L 937.5 554 L 935.5 554 Q 930 552.5 928.5 555 L 927.5 554 L 884.5 554 L 882.5 555 Q 879 554 880 548.5 L 883.5 546 L 904 545.5 L 903.5 544 Q 905.8 544.8 905 542.5 L 904 539.5 L 905 537.5 L 905 535.5 Q 905.8 533.3 903.5 534 L 904 532.5 L 905 526.5 L 904 523.5 L 904 521.5 L 905 518.5 L 905 516.5 Q 906.2 509.8 903 507.5 L 905 502.5 L 904 499.5 L 905 494.5 L 904 490.5 L 905 486.5 L 905 484.5 L 904 481.5 L 905 478.5 L 904 473.5 L 904 471.5 L 904 463.5 L 905 462.5 L 905 456.5 L 904 452.5 L 905 450.5 L 905 448.5 L 904 443.5 L 905 440.5 L 904 432.5 L 905 430.5 L 904 423.5 L 904 415.5 L 905 414.5 Q 902.8 413.2 904 408.5 L 905 406.5 L 904 401.5 L 905 400.5 L 905 390.5 L 904 387.5 L 905 382.5 L 904 377.5 L 905 374.5 Q 902.8 373.2 904 368.5 L 905 365.5 L 903.5 363 L 905 363.5 L 904 361.5 L 905 360.5 L 905 352.5 L 904 346 L 881.5 346 Q 880.3 345.8 881 339.5 L 885.5 337 L 886.5 338 L 971.5 338 L 973.5 336 Z M 947 346 L 947 349 L 946 348 L 944 347 L 942 348 L 942 355 L 944 355 Q 945 357 942 356 L 942 363 L 944 363 L 944 364 L 942 365 L 942 435 L 944 435 L 944 436 L 942 437 L 942 451 L 945 452 L 964 452 L 975 450 L 979 448 Q 981 449 980 447 L 982 447 L 986 445 L 987 442 L 993 438 L 992 436 L 994 436 L 993 434 L 995 434 L 996 432 L 995 430 L 996 427 L 995 425 L 997 425 L 999 424 L 1000 423 L 1002 414 L 1002 402 L 1003 401 L 1002 385 L 1001 387 L 1000 387 L 1001 385 L 999 375 L 998 375 Q 999 377 997 376 L 994 372 L 996 368 L 995 366 Q 994 363 993 365 L 993 364 L 992 362 L 989 360 Q 984 358 986 355 Q 983 356 984 353 L 982 354 L 982 353 L 978 350 Q 976 353 975 351 L 973 352 L 969 351 L 968 347 L 949 348 L 950 350 L 948 349 L 949 347 L 947 346 Z M 966 460 L 966 461 L 972 461 L 966 460 Z " /><path fill="rgb(247,247,247)" stroke="rgb(247,247,247)" stroke-width="1" opacity="0.8549019607843137" d="M 1045.5 336 L 1046 338 L 1095 337.5 L 1080 336.5 L 1104.5 336 L 1104.5 337 L 1096 337.5 L 1127.5 338 L 1127.5 337 L 1117 336.5 L 1142.5 336 L 1142.5 337 L 1136 337.5 L 1189.5 338 L 1191 337.5 L 1192 340.5 L 1191 343.5 Q 1189.5 349 1192 350.5 Q 1189.5 352 1191 357.5 L 1191 359.5 L 1191 381.5 L 1192 382.5 L 1191 385.5 L 1192 391.5 L 1190 394.5 L 1190.5 396 L 1189 393 Q 1182.6 395.3 1185 387.5 L 1181.5 374 L 1180.5 376 L 1179 373.5 L 1181 373 Q 1180.3 364.7 1175.5 359 L 1174 359.5 Q 1176.2 358.3 1173.5 357 L 1169.5 356 L 1168 356.5 L 1169 352.5 L 1165.5 350 L 1164.5 352 L 1161 350.5 L 1163 349.5 L 1157.5 348 L 1157 350 L 1154 349.5 L 1156 348.5 Q 1149.1 345.7 1139 347 L 1138.5 349 L 1138 347 L 1135 347 Q 1136.3 350 1132.5 349 L 1132.5 348 L 1134 347.5 L 1127 347 Q 1128.1 349.7 1125.5 349 L 1124.5 346 Q 1118.9 345.4 1117.5 349 L 1116.5 346 L 1112.5 347 L 1109.5 346 L 1106.5 348 L 1104 347 L 1104.5 436 L 1107.5 434 L 1109 437 L 1132.5 437 L 1133.5 436 L 1142 435.5 L 1137 434.5 L 1137.5 432 Q 1139.8 431.3 1139 433.5 L 1140.5 433 L 1142.5 432 L 1143.5 434 L 1142 434.5 L 1144.5 435 L 1152 429.5 L 1154 424.5 L 1153.5 423 L 1155 423.5 L 1158 414.5 L 1158 410.5 Q 1155.5 409 1159 407.5 L 1158 402.5 L 1158.5 400 L 1160 400.5 Q 1159.1 397.5 1163.5 399 L 1165 398.5 L 1165.5 472 L 1166.5 470 L 1167 471.5 L 1166 473.5 Q 1169.8 475.3 1166.5 477 L 1165 476.5 Q 1166 481 1163.5 482 L 1160 481 L 1157 466.5 L 1151.5 455 L 1150 455.5 L 1151 454.5 L 1147.5 451 L 1145.5 452 L 1144.5 450 L 1146.5 451 L 1145.5 449 L 1138.5 447 L 1136.5 448 L 1134.5 448 L 1130.5 447 L 1129.5 448 L 1116 448 L 1115.5 446 L 1109 446 L 1108.5 448 L 1108 446 L 1104 446.5 L 1104 546 L 1111 545.5 L 1105 544.5 L 1115.5 544 L 1117.5 544 L 1127.5 544 L 1128.5 545 L 1129.5 544 L 1137.5 544 L 1139.5 544 L 1143.5 545 L 1145.5 545 Q 1151.8 546.8 1153.5 544 Q 1155 546.5 1160.5 545 L 1170.5 543 L 1178 538.5 L 1177.5 537 Q 1179.2 539.8 1181 535.5 L 1180 533.5 L 1183 532.5 L 1185 528.5 L 1184.5 527 L 1186 527.5 L 1187 524.5 L 1184 523.5 L 1186.5 522 L 1187.5 524 L 1188 521 L 1186 520.5 L 1189.5 512 L 1190.5 515 Q 1190.3 508.8 1193 505.5 L 1193 498.5 L 1192 496.5 L 1193 496.5 L 1193.5 498 L 1194 492.5 L 1193 487.5 L 1194 487.5 L 1194.5 491 L 1196 482.5 L 1197.5 481 L 1201 481.5 L 1201 554 L 1169.5 554 L 1169 555.5 L 1168 555.5 L 1167.5 554 L 1153.5 554 L 1151.5 554 L 1137.5 554 L 1136.5 555 L 1135.5 554 L 1105 554 L 1104.5 556 L 1104 554 L 1097.5 554 L 1097 555.5 L 1096 555.5 Q 1096.5 552.5 1089.5 554 L 1087.5 554 L 1073.5 554 L 1070.5 556 L 1070.5 555 L 1072 554.5 L 1064.5 554 L 1062.5 554 L 1049.5 554 L 1047.5 556 L 1046 555.5 L 1047 558.5 L 1044.5 560 Q 1041.4 558.6 1042 553.5 L 1043 550.5 L 1042 550.5 L 1041.5 552 L 1041 550.5 Q 1044.5 549 1042 547.5 L 1043.5 544 L 1044.5 546 L 1045.5 544 L 1048.5 547 L 1049.5 546 L 1065 545.5 Q 1062.8 544.3 1065.5 543 L 1066.5 546 L 1067 540 L 1065 539.5 L 1067 539 L 1067 532.5 L 1066 531.5 L 1067 530.5 L 1067 524 Q 1063.7 525.3 1065 520.5 L 1067 520.5 L 1067 508.5 L 1066 507.5 L 1067 504.5 L 1066 499.5 L 1067 498.5 L 1067 484 Q 1064.3 485.1 1065 482.5 L 1065 480.5 L 1065.5 479 L 1066.5 481 L 1067 476 L 1065 475.5 L 1067 474.5 L 1065 474 L 1065.5 471 L 1066.5 473 L 1067 468 Q 1063.7 469.3 1065 464.5 L 1067 464.5 Q 1068.9 459.1 1065.5 460 L 1065.5 459 L 1067 458.5 L 1065 458 L 1064 455.5 L 1066 455 L 1066.5 457 L 1067 452.5 Q 1064.3 451.8 1065 447.5 L 1066 447.5 L 1066.5 449 L 1067 444.5 L 1066.5 442 Q 1064.3 442.8 1065 440.5 L 1067 440.5 L 1067 436.5 Q 1064.3 435.8 1065 431.5 L 1066 431.5 L 1066.5 433 L 1067 428.5 L 1067 426.5 Q 1068.5 419.5 1065.5 420 L 1065.5 419 L 1067 418.5 L 1065 418 L 1065.5 416 L 1067 416.5 L 1066 411.5 L 1067 408.5 L 1066 403.5 L 1067 402.5 L 1065.5 400 L 1067 400.5 Q 1068.9 395.1 1065.5 396 L 1065.5 395 L 1067 394.5 L 1067 392.5 Q 1068.9 387.1 1065.5 388 L 1065.5 387 L 1067 386.5 L 1067 380 Q 1064.3 381.1 1065 378.5 L 1065.5 376 L 1067 376.5 L 1066 373.5 L 1066.5 370 Q 1064.3 370.8 1065 368.5 L 1067 368.5 L 1066 365.5 L 1066 361.5 L 1068 355.5 L 1066.5 356 L 1065 355.5 L 1067 354.5 L 1066.5 353 L 1068 352.5 L 1067 348.5 Q 1069.3 347.3 1066.5 346 L 1064.5 347 L 1063.5 346 L 1047.5 346 L 1047.5 348 L 1045 349.5 Q 1047.3 350.8 1044.5 352 L 1042 347.5 L 1043 347.5 L 1043.5 349 L 1045 344 Q 1042.3 345.1 1043 342.5 L 1042.5 341 Q 1045.1 341.8 1044 338.5 L 1043 338.5 L 1042.5 340 L 1040 339.5 L 1040.5 337 L 1042.5 338 L 1045 337.5 L 1045.5 336 Z M 1130 337 L 1130 338 L 1135 338 L 1130 337 Z M 1106 436 L 1106 437 L 1108 437 L 1106 436 Z M 1119 446 L 1119 447 L 1122 447 L 1119 446 Z M 1197 482 Q 1196 485 1199 484 Q 1200 481 1197 482 Z M 1190 515 L 1189 518 L 1190 518 L 1190 515 Z M 1045 552 L 1043 555 L 1044 557 L 1045 555 L 1045 552 Z " /><path fill="rgb(247,247,247)" stroke="rgb(247,247,247)" stroke-width="1" opacity="0.8549019607843137" d="M 1066.5 336 L 1072 336.5 L 1066.5 337 L 1066.5 336 Z " /><path fill="rgb(247,247,247)" stroke="rgb(247,247,247)" stroke-width="1" opacity="0.8549019607843137" d="M 1106.5 336 L 1113 336.5 L 1106.5 337 L 1106.5 336 Z " /><path fill="rgb(247,247,247)" stroke="rgb(247,247,247)" stroke-width="1" opacity="0.8549019607843137" d="M 424.5 337 L 423.5 339 L 424.5 337 Z " /><path fill="rgb(247,247,247)" stroke="rgb(247,247,247)" stroke-width="1" opacity="0.8549019607843137" d="M 978.5 337 L 983 337.5 L 978.5 338 L 978.5 337 Z " /><path fill="rgb(247,247,247)" stroke="rgb(247,247,247)" stroke-width="1" opacity="0.8549019607843137" d="M 464 338 L 551.5 338 Q 552.8 338.3 552 344.5 Q 548.9 346.3 550.5 348 L 548.5 346 L 537.5 346 L 534.5 347 L 530.5 346 L 530.5 348 L 525.5 347 L 525.5 348 Q 528.8 346.9 528 349.5 L 526.5 349 Q 523.9 348.2 525 351.5 L 527 351.5 L 525 355.5 L 525 357.5 L 525.5 359 L 527 358.5 L 525 363.5 L 527 363.5 L 525 366.5 L 526 370.5 L 526 372.5 L 526.5 374 L 528 373.5 L 526 378.5 L 526.5 380 L 525 379.5 Q 523.5 383.9 526.5 383 L 526 384.5 L 527 387.5 L 526 389.5 L 527 391.5 L 526 394.5 L 526 396.5 L 525 398.5 L 525 400.5 L 525.5 404 L 527 403.5 Q 527.7 406.1 525 405 L 525 407 L 527 407.5 L 527 411.5 L 525 413.5 Q 524.3 415.8 526.5 415 L 526 416.5 L 525 423 L 527 423.5 L 525 424 L 525 430.5 L 526.5 431 L 526 432.5 L 528 437.5 L 526.5 437 Q 523.9 436.3 525 439 L 527 439.5 L 526 442.5 L 528 445.5 L 526 444.5 L 525.5 443 L 525 447 L 527 447.5 L 525 448.5 L 525 450.5 L 525.5 452 L 527 451.5 L 525 455 L 527 455.5 Q 524.2 457.2 525 462.5 L 527 462.5 L 526 466.5 L 528 469.5 L 525 475.5 L 525 477.5 L 525.5 479 L 527 478.5 L 526 482.5 L 526 484.5 L 526.5 486 L 528 485.5 L 526 490.5 L 528 493.5 L 526 498.5 Q 528.5 500 525 501.5 Q 524.3 503.8 526.5 503 L 526 504.5 L 525 507.5 L 525 509.5 L 526 514.5 L 525 517.5 L 525.5 519 L 527 518.5 L 526 522.5 Q 528.5 524 525 525.5 Q 524.3 527.8 526.5 527 L 526.5 528 L 525 528.5 L 525 530.5 L 525.5 532 L 527 531.5 L 525 534.5 L 527 534.5 L 525 539.5 L 527 544 L 530 544.5 L 527 545.5 L 574.5 546 L 574.5 545 L 559 544.5 L 574.5 544 L 576.5 545 L 579.5 544 Q 581.3 546.8 587.5 545 L 597 542.5 L 594 541.5 L 596.5 541 L 598.5 542 L 608 534.5 L 609 532.5 L 608 530 L 610.5 531 L 613 526.5 L 611 525.5 L 614 525 L 615 521.5 L 613 520.5 L 616 520 L 620 507.5 L 622 495.5 L 620 495.5 Q 619.2 492.5 623 494 L 623 487.5 L 624 486.5 L 624 480 L 630.5 480 L 631 481.5 L 631 483.5 L 632 487.5 L 631 488.5 L 631 554 L 609.5 554 L 608.5 555 L 607.5 554 L 593.5 554 L 591.5 554 Q 586 552.5 584.5 555 L 581.5 554 L 576.5 555 Q 574.8 552.3 568.5 554 L 564 557 L 564.5 555 Q 565.8 557.3 567 554.5 L 513.5 554 L 513.5 555 L 515 555.5 L 513.5 557 Q 511.7 553.9 510 555.5 Q 510.9 552.1 505.5 554 L 503 554.5 L 501.5 557 L 502 555.5 Q 502.9 552.1 497.5 554 L 495.5 554 L 473.5 554 L 471.5 555 L 470.5 554 L 461 554 L 461 547 L 464.5 547 L 465.5 546 L 487 546 L 487 346.5 L 486.5 346 L 472.5 346 L 470.5 346 Q 464.4 347.1 462 344.5 Q 465.3 343.1 464 338 Z M 526 467 L 525 471 L 527 470 L 526 467 Z M 578 545 L 578 546 L 580 546 L 578 545 Z " /><path fill="rgb(247,247,247)" stroke="rgb(247,247,247)" stroke-width="1" opacity="0.8549019607843137" d="M 346.5 340 L 345.5 342 L 346.5 340 Z " /><path fill="rgb(247,247,247)" stroke="rgb(247,247,247)" stroke-width="1" opacity="0.8549019607843137" d="M 747.5 343 L 752 343.5 L 747.5 344 L 747.5 343 Z " /><path fill="rgb(247,247,247)" stroke="rgb(247,247,247)" stroke-width="1" opacity="0.8549019607843137" d="M 764.5 343 L 768 343.5 L 764.5 344 L 764.5 343 Z " /><path fill="rgb(247,247,247)" stroke="rgb(247,247,247)" stroke-width="1" opacity="0.8549019607843137" d="M 478.5 347 L 477.5 349 L 478.5 347 Z " /><path fill="rgb(247,247,247)" stroke="rgb(247,247,247)" stroke-width="1" opacity="0.8549019607843137" d="M 480.5 347 L 483 347.5 Q 480.9 350.8 480.5 347 Z " /><path fill="rgb(247,247,247)" stroke="rgb(247,247,247)" stroke-width="1" opacity="0.8549019607843137" d="M 960.5 348 L 967 348.5 L 960.5 349 L 960.5 348 Z " /><path fill="rgb(247,247,247)" stroke="rgb(247,247,247)" stroke-width="1" opacity="0.8549019607843137" d="M 1064 348 Q 1067.7 346.8 1066 352 L 1064 351.5 L 1064 349.5 L 1064 348 Z " /><path fill="rgb(247,247,247)" stroke="rgb(247,247,247)" stroke-width="1" opacity="0.8549019607843137" d="M 1140.5 348 L 1144 349.5 L 1142.5 349 Q 1139.5 349.5 1140.5 348 Z " /><path fill="rgb(247,247,247)" stroke="rgb(247,247,247)" stroke-width="1" opacity="0.8549019607843137" d="M 396.5 350 L 397.5 352 L 396.5 350 Z " /><path fill="rgb(247,247,247)" stroke="rgb(247,247,247)" stroke-width="1" opacity="0.8549019607843137" d="M 753.5 352 L 756 352.5 L 753.5 353 L 753.5 352 Z " /><path fill="rgb(247,247,247)" stroke="rgb(247,247,247)" stroke-width="1" opacity="0.8549019607843137" d="M 348.5 356 L 347.5 358 L 348.5 356 Z " /><path fill="rgb(247,247,247)" stroke="rgb(247,247,247)" stroke-width="1" opacity="0.8549019607843137" d="M 753.5 360 L 753 361.5 L 752.5 363 L 752 361.5 L 753.5 360 Z " /><path fill="rgb(247,247,247)" stroke="rgb(247,247,247)" stroke-width="1" opacity="0.8549019607843137" d="M 818.5 363 L 822 364.5 L 820.5 364 Q 817.5 364.5 818.5 363 Z " /><path fill="rgb(247,247,247)" stroke="rgb(247,247,247)" stroke-width="1" opacity="0.8549019607843137" d="M 657.5 368 L 658.5 370 L 657.5 368 Z " /><path fill="rgb(247,247,247)" stroke="rgb(247,247,247)" stroke-width="1" opacity="0.8549019607843137" d="M 419.5 374 L 423 375.5 L 421.5 376 L 419.5 374 Z " /><path fill="rgb(247,247,247)" stroke="rgb(247,247,247)" stroke-width="1" opacity="0.8549019607843137" d="M 831.5 375 L 834 375.5 L 831.5 376 L 831.5 375 Z " /><path fill="rgb(247,247,247)" stroke="rgb(247,247,247)" stroke-width="1" opacity="0.8549019607843137" d="M 998.5 378 L 999 380.5 L 998 380.5 L 998.5 378 Z " /><path fill="rgb(247,247,247)" stroke="rgb(247,247,247)" stroke-width="1" opacity="0.8549019607843137" d="M 729.5 380 L 728.5 382 L 729.5 380 Z " /><path fill="rgb(247,247,247)" stroke="rgb(247,247,247)" stroke-width="1" opacity="0.8549019607843137" d="M 861.5 384 L 862.5 386 L 861.5 384 Z " /><path fill="rgb(247,247,247)" stroke="rgb(247,247,247)" stroke-width="1" opacity="0.8549019607843137" d="M 1045.5 385 L 1045 386.5 L 1044.5 388 L 1044 386.5 L 1045.5 385 Z " /><path fill="rgb(247,247,247)" stroke="rgb(247,247,247)" stroke-width="1" opacity="0.8549019607843137" d="M 943.5 386 L 944 388.5 L 943 388.5 L 943.5 386 Z " /><path fill="rgb(247,247,247)" stroke="rgb(247,247,247)" stroke-width="1" opacity="0.8549019607843137" d="M 669.5 388 L 672 389 L 671.5 391 L 669.5 388 Z " /><path fill="rgb(247,247,247)" stroke="rgb(247,247,247)" stroke-width="1" opacity="0.8549019607843137" d="M 1044 390 L 1046 390.5 L 1044 391.5 L 1044 390 Z " /><path fill="rgb(247,247,247)" stroke="rgb(247,247,247)" stroke-width="1" opacity="0.8549019607843137" d="M 776.5 391 L 777 393.5 L 776 393.5 L 776.5 391 Z " /><path fill="rgb(247,247,247)" stroke="rgb(247,247,247)" stroke-width="1" opacity="0.8549019607843137" d="M 731.5 392 L 732.5 394 L 731.5 392 Z " /><path fill="rgb(247,247,247)" stroke="rgb(247,247,247)" stroke-width="1" opacity="0.8549019607843137" d="M 309.5 394 L 310 397.5 L 309 397.5 L 309.5 394 Z " /><path fill="rgb(247,247,247)" stroke="rgb(247,247,247)" stroke-width="1" opacity="0.8549019607843137" d="M 777.5 400 L 776.5 402 L 777.5 400 Z " /><path fill="rgb(247,247,247)" stroke="rgb(247,247,247)" stroke-width="1" opacity="0.8549019607843137" d="M 1045.5 409 L 1046 410.5 L 1044.5 413 L 1044 411.5 L 1045.5 409 Z " /><path fill="rgb(247,247,247)" stroke="rgb(247,247,247)" stroke-width="1" opacity="0.8549019607843137" d="M 1166.5 410 L 1167 412.5 L 1166 412.5 L 1166.5 410 Z " /><path fill="rgb(247,247,247)" stroke="rgb(247,247,247)" stroke-width="1" opacity="0.8549019607843137" d="M 1156.5 412 L 1157 414 L 1155 413.5 L 1156.5 412 Z " /><path fill="rgb(247,247,247)" stroke="rgb(247,247,247)" stroke-width="1" opacity="0.8549019607843137" d="M 1044 414 L 1047 415.5 L 1044 415.5 L 1044 414 Z " /><path fill="rgb(247,247,247)" stroke="rgb(247,247,247)" stroke-width="1" opacity="0.8549019607843137" d="M 394.5 419 L 397 420.5 L 395.5 421 L 394.5 419 Z " /><path fill="rgb(247,247,247)" stroke="rgb(247,247,247)" stroke-width="1" opacity="0.8549019607843137" d="M 790.5 422 Q 793.8 420.9 793 423.5 L 791.5 423 L 789.5 424 L 790.5 422 Z " /><path fill="rgb(247,247,247)" stroke="rgb(247,247,247)" stroke-width="1" opacity="0.8549019607843137" d="M 808.5 424 Q 811.5 425.5 808.5 427 L 808.5 424 Z " /><path fill="rgb(247,247,247)" stroke="rgb(247,247,247)" stroke-width="1" opacity="0.8549019607843137" d="M 652.5 427 Q 655.3 428.3 653 429.5 L 652.5 431 L 652.5 427 Z " /><path fill="rgb(247,247,247)" stroke="rgb(247,247,247)" stroke-width="1" opacity="0.8549019607843137" d="M 1166.5 431 L 1167 433.5 L 1166 433.5 L 1166.5 431 Z " /><path fill="rgb(247,247,247)" stroke="rgb(247,247,247)" stroke-width="1" opacity="0.8549019607843137" d="M 1110.5 435 L 1113 435.5 L 1110.5 436 L 1110.5 435 Z " /><path fill="rgb(247,247,247)" stroke="rgb(247,247,247)" stroke-width="1" opacity="0.8549019607843137" d="M 1166.5 435 L 1167 437.5 L 1166 437.5 L 1166.5 435 Z " /><path fill="rgb(247,247,247)" stroke="rgb(247,247,247)" stroke-width="1" opacity="0.8549019607843137" d="M 864.5 438 L 865 443.5 L 864 443.5 L 864.5 438 Z " /><path fill="rgb(247,247,247)" stroke="rgb(247,247,247)" stroke-width="1" opacity="0.8549019607843137" d="M 946.5 449 L 947 451 L 945 450.5 L 946.5 449 Z " /><path fill="rgb(247,247,247)" stroke="rgb(247,247,247)" stroke-width="1" opacity="0.8549019607843137" d="M 949.5 449 L 952 450.5 L 950.5 451 L 949.5 449 Z " /><path fill="rgb(247,247,247)" stroke="rgb(247,247,247)" stroke-width="1" opacity="0.8549019607843137" d="M 695.5 450 L 696 452.5 L 695 452.5 L 695.5 450 Z " /><path fill="rgb(247,247,247)" stroke="rgb(247,247,247)" stroke-width="1" opacity="0.8549019607843137" d="M 634.5 456 Q 637.1 455.2 636 458.5 L 635 458.5 L 634.5 456 Z " /><path fill="rgb(247,247,247)" stroke="rgb(247,247,247)" stroke-width="1" opacity="0.8549019607843137" d="M 747.5 456 L 746.5 458 L 747.5 456 Z " /><path fill="rgb(247,247,247)" stroke="rgb(247,247,247)" stroke-width="1" opacity="0.8549019607843137" d="M 986.5 460 L 990 460.5 L 986.5 461 L 986.5 460 Z " /><path fill="rgb(247,247,247)" stroke="rgb(247,247,247)" stroke-width="1" opacity="0.8549019607843137" d="M 977.5 461 Q 981.9 459.5 981 462.5 L 979.5 462 Q 976.5 462.5 977.5 461 Z " /><path fill="rgb(247,247,247)" stroke="rgb(247,247,247)" stroke-width="1" opacity="0.8549019607843137" d="M 636.5 465 L 637 468.5 L 636 468.5 L 636.5 465 Z " /><path fill="rgb(247,247,247)" stroke="rgb(247,247,247)" stroke-width="1" opacity="0.8549019607843137" d="M 792.5 466 L 793.5 468 L 792.5 466 Z " /><path fill="rgb(247,247,247)" stroke="rgb(247,247,247)" stroke-width="1" opacity="0.8549019607843137" d="M 878 467 L 880 467.5 L 878 468.5 L 878 467 Z " /><path fill="rgb(247,247,247)" stroke="rgb(247,247,247)" stroke-width="1" opacity="0.8549019607843137" d="M 831.5 475 L 831.5 478 Q 828.5 476.5 831.5 475 Z " /><path fill="rgb(247,247,247)" stroke="rgb(247,247,247)" stroke-width="1" opacity="0.8549019607843137" d="M 307.5 477 L 308 480.5 L 307 480.5 L 307.5 477 Z " /><path fill="rgb(247,247,247)" stroke="rgb(247,247,247)" stroke-width="1" opacity="0.8549019607843137" d="M 657.5 480 L 658.5 482 L 657.5 480 Z " /><path fill="rgb(247,247,247)" stroke="rgb(247,247,247)" stroke-width="1" opacity="0.8549019607843137" d="M 643.5 491 L 644 493 L 642 492.5 L 643.5 491 Z " /><path fill="rgb(247,247,247)" stroke="rgb(247,247,247)" stroke-width="1" opacity="0.8549019607843137" d="M 721.5 492 L 725 493.5 L 724.5 496 L 721.5 492 Z " /><path fill="rgb(247,247,247)" stroke="rgb(247,247,247)" stroke-width="1" opacity="0.8549019607843137" d="M 845.5 505 L 846 507 L 844 506.5 L 845.5 505 Z " /><path fill="rgb(247,247,247)" stroke="rgb(247,247,247)" stroke-width="1" opacity="0.8549019607843137" d="M 325.5 506 L 328 507.5 L 326.5 508 L 325.5 506 Z " /><path fill="rgb(247,247,247)" stroke="rgb(247,247,247)" stroke-width="1" opacity="0.8549019607843137" d="M 424.5 513 L 425 518.5 L 424 518.5 L 424.5 513 Z " /><path fill="rgb(247,247,247)" stroke="rgb(247,247,247)" stroke-width="1" opacity="0.8549019607843137" d="M 746.5 515 Q 749.5 514.1 748 518.5 L 747 518.5 L 746.5 515 Z " /><path fill="rgb(247,247,247)" stroke="rgb(247,247,247)" stroke-width="1" opacity="0.8549019607843137" d="M 452.5 517 L 453 519.5 L 452 519.5 L 452.5 517 Z " /><path fill="rgb(247,247,247)" stroke="rgb(247,247,247)" stroke-width="1" opacity="0.8549019607843137" d="M 307.5 520 L 308 522.5 L 307 522.5 L 307.5 520 Z " /><path fill="rgb(247,247,247)" stroke="rgb(247,247,247)" stroke-width="1" opacity="0.8549019607843137" d="M 657.5 520 L 658.5 522 L 657.5 520 Z " /><path fill="rgb(247,247,247)" stroke="rgb(247,247,247)" stroke-width="1" opacity="0.8549019607843137" d="M 687.5 520 L 686.5 522 L 687.5 520 Z " /><path fill="rgb(247,247,247)" stroke="rgb(247,247,247)" stroke-width="1" opacity="0.8549019607843137" d="M 678.5 539 L 677.5 541 L 678.5 539 Z " /><path fill="rgb(247,247,247)" stroke="rgb(247,247,247)" stroke-width="1" opacity="0.8549019607843137" d="M 536.5 544 L 542 544.5 L 536.5 545 L 536.5 544 Z " /><path fill="rgb(247,247,247)" stroke="rgb(247,247,247)" stroke-width="1" opacity="0.8549019607843137" d="M 543.5 544 L 547 544.5 L 543.5 545 L 543.5 544 Z " /><path fill="rgb(247,247,247)" stroke="rgb(247,247,247)" stroke-width="1" opacity="0.8549019607843137" d="M 548.5 544 L 551 544.5 L 548.5 545 L 548.5 544 Z " /><path fill="rgb(247,247,247)" stroke="rgb(247,247,247)" stroke-width="1" opacity="0.8549019607843137" d="M 552.5 544 L 558 544.5 L 552.5 545 L 552.5 544 Z " /><path fill="rgb(247,247,247)" stroke="rgb(247,247,247)" stroke-width="1" opacity="0.8549019607843137" d="M 728.5 545 L 730.5 545 L 732 545.5 L 729.5 547 L 728.5 545 Z " /><path fill="rgb(247,247,247)" stroke="rgb(247,247,247)" stroke-width="1" opacity="0.8549019607843137" d="M 414.5 555 L 413.5 557 L 411 556.5 L 414.5 555 Z " /><path fill="rgb(247,247,247)" stroke="rgb(247,247,247)" stroke-width="1" opacity="0.8549019607843137" d="M 490.5 555 L 491.5 557 L 490.5 555 Z " /><path fill="rgb(247,247,247)" stroke="rgb(247,247,247)" stroke-width="1" opacity="0.8549019607843137" d="M 494.5 555 L 496 557.5 L 494.5 557 L 493 556.5 L 494.5 555 Z " /><path fill="rgb(247,247,247)" stroke="rgb(247,247,247)" stroke-width="1" opacity="0.8549019607843137" d="M 550.5 555 L 549.5 557 L 550.5 555 Z " /><path fill="rgb(247,247,247)" stroke="rgb(247,247,247)" stroke-width="1" opacity="0.8549019607843137" d="M 590.5 555 L 589.5 557 L 588 556.5 L 590.5 555 Z " /><path fill="rgb(247,247,247)" stroke="rgb(247,247,247)" stroke-width="1" opacity="0.8549019607843137" d="M 606.5 555 L 605.5 557 L 606.5 555 Z " /><path fill="rgb(247,247,247)" stroke="rgb(247,247,247)" stroke-width="1" opacity="0.8549019607843137" d="M 630.5 555 L 632 555.5 L 629.5 557 L 630.5 555 Z " /><path fill="rgb(247,247,247)" stroke="rgb(247,247,247)" stroke-width="1" opacity="0.8549019607843137" d="M 926.5 555 L 925.5 557 L 926.5 555 Z " /><path fill="rgb(247,247,247)" stroke="rgb(247,247,247)" stroke-width="1" opacity="0.8549019607843137" d="M 1078.5 555 L 1077.5 557 L 1078.5 555 Z " /><path fill="rgb(247,247,247)" stroke="rgb(247,247,247)" stroke-width="1" opacity="0.8549019607843137" d="M 1090.5 555 L 1095 555.5 L 1091.5 557 L 1090.5 555 Z " /><path fill="rgb(247,247,247)" stroke="rgb(247,247,247)" stroke-width="1" opacity="0.8549019607843137" d="M 1102.5 555 L 1101.5 557 L 1102.5 555 Z " /><path fill="rgb(247,247,247)" stroke="rgb(247,247,247)" stroke-width="1" opacity="0.8549019607843137" d="M 1118.5 555 L 1120 555.5 L 1117.5 557 L 1118.5 555 Z " /><path fill="rgb(247,247,247)" stroke="rgb(247,247,247)" stroke-width="1" opacity="0.8549019607843137" d="M 1142.5 555 L 1141.5 557 L 1140 556.5 L 1142.5 555 Z " /><path fill="rgb(247,247,247)" stroke="rgb(247,247,247)" stroke-width="1" opacity="0.8549019607843137" d="M 1174.5 555 L 1173.5 557 L 1174.5 555 Z " /><path fill="rgb(247,247,247)" stroke="rgb(247,247,247)" stroke-width="1" opacity="0.8549019607843137" d="M 1182.5 555 L 1185 555.5 L 1182.5 556 L 1182.5 555 Z " /><path fill="rgb(247,247,247)" stroke="rgb(247,247,247)" stroke-width="1" opacity="0.8549019607843137" d="M 1190.5 555 L 1189.5 557 L 1188 556.5 L 1190.5 555 Z " /><path fill="rgb(247,247,247)" stroke="rgb(247,247,247)" stroke-width="1" opacity="0.8549019607843137" d="M 357.5 557 L 361 557.5 L 357.5 558 L 357.5 557 Z " /><path fill="rgb(247,247,247)" stroke="rgb(247,247,247)" stroke-width="1" opacity="0.8549019607843137" d="M 1191.5 557 L 1191 558.5 L 1190.5 560 L 1190 558.5 L 1191.5 557 Z " /><path fill="rgb(247,247,247)" stroke="rgb(247,247,247)" stroke-width="1" opacity="0.8549019607843137" d="M 403.5 558 L 406 558.5 L 403.5 559 L 403.5 558 Z " /><path fill="rgb(247,247,247)" stroke="rgb(247,247,247)" stroke-width="1" opacity="0.8549019607843137" d="M 732.5 563 L 733.5 565 L 732.5 563 Z " /><path fill="rgb(247,247,247)" stroke="rgb(247,247,247)" stroke-width="1" opacity="0.8549019607843137" d="M 782.5 563 L 784 563.5 L 781.5 565 L 782.5 563 Z " /><path fill="rgb(247,247,247)" stroke="rgb(247,247,247)" stroke-width="1" opacity="0.8549019607843137" d="M 739.5 564 L 742 564.5 L 739.5 565 L 739.5 564 Z " /><path fill="rgb(247,247,247)" stroke="rgb(247,247,247)" stroke-width="1" opacity="0.8549019607843137" d="M 778.5 564 L 780 564.5 L 777.5 566 L 778.5 564 Z " /><path fill="rgb(247,247,247)" stroke="rgb(247,247,247)" stroke-width="1" opacity="0.8549019607843137" d="M 747.5 565 L 750 565.5 Q 747.9 568.8 747.5 565 Z " /><path fill="rgb(247,247,247)" stroke="rgb(247,247,247)" stroke-width="1" opacity="0.8549019607843137" d="M 752.5 565 L 755 565.5 L 752.5 566 L 752.5 565 Z " /><path fill="rgb(247,247,247)" stroke="rgb(247,247,247)" stroke-width="1" opacity="0.8549019607843137" d="M 759.5 565 L 769 565.5 L 759.5 566 L 759.5 565 Z " /><path fill="rgb(247,247,247)" stroke="rgb(247,247,247)" stroke-width="1" opacity="0.8549019607843137" d="M 477.5 592 L 478.5 594 Q 475.7 594.7 477.5 592 Z " /><path fill="rgb(247,247,247)" stroke="rgb(247,247,247)" stroke-width="1" opacity="0.8549019607843137" d="M 508.5 592 L 511 593.5 L 508.5 595 L 508.5 592 Z " /><path fill="rgb(247,247,247)" stroke="rgb(247,247,247)" stroke-width="1" opacity="0.8549019607843137" d="M 657.5 592 L 661 593.5 L 658.5 594 L 657 593.5 L 656.5 596 L 656 593.5 L 657.5 592 Z " /><path fill="rgb(247,247,247)" stroke="rgb(247,247,247)" stroke-width="1" opacity="0.8549019607843137" d="M 749.5 592 L 750.5 594 L 748.5 594 L 744 593.5 L 749.5 592 Z " /><path fill="rgb(247,247,247)" stroke="rgb(247,247,247)" stroke-width="1" opacity="0.8549019607843137" d="M 842 592 L 845 592.5 L 842 594 L 842 592 Z " /><path fill="rgb(247,247,247)" stroke="rgb(247,247,247)" stroke-width="1" opacity="0.8549019607843137" d="M 846.5 592 Q 848.8 591.3 848 593.5 L 846.5 592 Z " /><path fill="rgb(247,247,247)" stroke="rgb(247,247,247)" stroke-width="1" opacity="0.8549019607843137" d="M 869.5 592 L 873 593.5 L 869 594.5 L 876.5 595 L 878 596.5 L 886.5 615 L 888 614.5 L 887 617.5 L 888 617.5 Q 887.1 614.5 891.5 616 L 894 615.5 L 893 613.5 L 895 613.5 L 901 598.5 L 899 598.5 L 900.5 594 Q 902 597.5 903.5 595 L 911.5 595 L 912 597.5 L 893.5 636 Q 891.5 638.8 887 638 L 886.5 636 L 885 636.5 L 885 634.5 Q 878.1 614.4 868 597.5 L 868 594.5 L 869.5 592 Z M 890 617 Q 887 618 889 620 Q 887 624 891 623 L 890 622 L 892 619 L 891 619 L 890 617 Z " /><path fill="rgb(247,247,247)" stroke="rgb(247,247,247)" stroke-width="1" opacity="0.8549019607843137" d="M 931.5 592 L 932 594 L 929 594.5 L 933 595 L 933.5 598 L 934 595 L 936 595.5 L 934.5 600 L 933 599.5 L 933 631.5 L 935 632 L 935 633.5 Q 937.3 634.7 934.5 636 L 932.5 636 L 931 636.5 L 932 638.5 L 930.5 638 L 928.5 639 L 925.5 638 L 924 638.5 L 925 636.5 L 924 635.5 L 923.5 598 L 922.5 600 L 922 597 Q 925 598 924 595 L 927.5 595 L 927.5 593 L 931.5 592 Z M 928 636 L 928 637 L 930 637 L 928 636 Z " /><path fill="rgb(247,247,247)" stroke="rgb(247,247,247)" stroke-width="1" opacity="0.8549019607843137" d="M 961.5 592 L 963.5 597 Q 965.3 594.3 967 598.5 L 965 598.5 L 968.5 603 Q 969.8 600.8 971 603.5 L 970 605.5 Q 971.7 609.7 973.5 607 L 976 607.5 L 973 608.5 L 977 611 Q 976.3 614.8 979.5 616 L 981.5 615 L 983 615.5 L 983.5 593 L 984 595 L 990.5 595 L 991.5 594 L 992 636 L 989 636.5 Q 991.2 637.8 988.5 639 L 985 637.5 L 988 636.5 L 984 636 L 973.5 623 L 972 623.5 Q 972.8 621.3 970.5 622 L 965.5 619 L 964 619.5 L 965 617.5 L 964 613.5 Q 966.3 612.3 963.5 611 L 963 631.5 L 964 631.5 L 964.5 628 L 965.5 632 L 967 631.5 L 966 634.5 L 964.5 637 L 961 638.5 L 961.5 640 Q 959.3 640.8 960 638.5 L 957.5 637 L 957.5 639 Q 953.8 640 955 637 L 957 636.5 L 952 635 L 953 632.5 L 952.5 631 L 954 631.5 L 954 595.5 L 954.5 595 L 961.5 595 L 962 593.5 L 961.5 592 Z M 968 615 L 966 618 Q 968 621 969 618 L 968 615 Z M 980 616 L 983 620 L 983 618 L 980 616 Z M 971 619 Q 969 622 972 621 L 971 619 Z M 964 633 L 963 636 L 964 636 L 964 633 Z M 960 636 L 960 637 L 963 637 L 960 636 Z " /><path fill="rgb(247,247,247)" stroke="rgb(247,247,247)" stroke-width="1" opacity="0.8549019607843137" d="M 1045.5 592 L 1047 593.5 L 1045 597.5 L 1046.5 599 L 1048 598.5 L 1046 603.5 L 1046.5 606 Q 1049.1 605.3 1048 608 L 1046 608.5 Q 1049.8 610.3 1046.5 612 L 1045 612.5 L 1048 613 L 1048 632.5 L 1046.5 633 L 1044 634.5 L 1048 635.5 L 1045 637.5 Q 1047.3 638.8 1044.5 640 L 1044 637.5 Q 1045.3 633.8 1041.5 635 L 1040.5 636 L 1032 636.5 L 1035 637.5 Q 1033.3 640.8 1031.5 637 L 1019.5 635 Q 1017.8 638.8 1016 635.5 L 1018 635.5 L 1015.5 632 L 1013.5 631 L 1012 631.5 Q 1014.5 630 1011 628.5 L 1010.5 627 L 1009 627.5 L 1010 625.5 Q 1006 620.5 1008 609.5 Q 1010.3 602.8 1015.5 599 L 1018 597.5 Q 1015.3 595.7 1019.5 594 L 1018.5 597 L 1023 595.5 L 1022 593 L 1024 593.5 L 1023.5 595 L 1029 594.5 L 1028.5 593 L 1044.5 597 L 1043.5 595 L 1041 594.5 L 1045 594 L 1045.5 592 Z M 1027 603 L 1023 605 L 1023 607 L 1023 609 L 1022 606 L 1017 614 Q 1016 620 1019 619 L 1018 621 L 1019 624 Q 1021 628 1023 625 L 1022 627 L 1025 628 Q 1029 629 1031 627 L 1032 628 L 1031 628 L 1031 629 L 1038 628 L 1039 626 L 1036 627 L 1034 627 L 1036 626 Q 1038 621 1032 623 L 1028 624 Q 1027 621 1030 622 L 1031 623 L 1029 620 Q 1031 614 1028 613 L 1031 612 L 1033 613 L 1042 613 L 1042 611 L 1039 612 L 1039 611 Q 1041 612 1040 610 Q 1042 611 1044 608 L 1045 610 L 1045 608 L 1041 606 L 1041 608 L 1040 606 Q 1036 601 1027 603 Z M 1033 620 Q 1031 623 1034 622 L 1033 620 Z " /><path fill="rgb(247,247,247)" stroke="rgb(247,247,247)" stroke-width="1" opacity="0.8549019607843137" d="M 435.5 593 L 442 593.5 L 435.5 594 L 435.5 593 Z " /><path fill="rgb(247,247,247)" stroke="rgb(247,247,247)" stroke-width="1" opacity="0.8549019607843137" d="M 611.5 593 L 614 593.5 L 611.5 594 L 611.5 593 Z " /><path fill="rgb(247,247,247)" stroke="rgb(247,247,247)" stroke-width="1" opacity="0.8549019607843137" d="M 637.5 593 Q 641.3 592.3 642 594.5 L 643 603 L 624.5 603 L 624 605 L 621.5 605 L 620 604.5 L 620.5 612 L 621.5 611 L 638.5 611 Q 641.5 612.5 640 618.5 L 634.5 622 L 634.5 621 L 636 620.5 L 624.5 620 L 621.5 621 L 620 620.5 L 620.5 626 L 621.5 622 L 624 623.5 L 622 624 Q 623.5 627.8 620.5 627 L 620.5 628 L 639.5 628 L 640 626.5 L 642 627.5 L 643.5 632 L 644.5 628 L 646 630.5 L 646 632.5 Q 644.9 635.8 647.5 635 L 647.5 636 L 645.5 635 L 644 635.5 L 643.5 633 L 641.5 636 L 637 636 Q 638.1 638.7 635.5 638 L 635.5 636 L 615.5 636 L 613.5 637 L 611 636 L 611 595 L 640.5 595 L 640.5 594 Q 636.5 594.8 637.5 593 Z " /><path fill="rgb(247,247,247)" stroke="rgb(247,247,247)" stroke-width="1" opacity="0.8549019607843137" d="M 645.5 593 L 647.5 596 L 645.5 593 Z " /><path fill="rgb(247,247,247)" stroke="rgb(247,247,247)" stroke-width="1" opacity="0.8549019607843137" d="M 905.5 593 L 909 593.5 L 905.5 594 L 905.5 593 Z " /><path fill="rgb(247,247,247)" stroke="rgb(247,247,247)" stroke-width="1" opacity="0.8549019607843137" d="M 955.5 593 L 958 593.5 L 955.5 594 L 955.5 593 Z " /><path fill="rgb(247,247,247)" stroke="rgb(247,247,247)" stroke-width="1" opacity="0.8549019607843137" d="M 516.5 594 L 525.5 595 L 533.5 600 L 535 599.5 L 535 601.5 L 539 607.5 L 540 620.5 Q 537.9 628.9 531.5 633 L 528.5 635 L 521 636.5 Q 523.3 637.8 520.5 639 L 520.5 637 L 516 637.5 L 519 638 L 518.5 640 L 516 639.5 L 513.5 636 Q 504.8 636.2 501.5 631 L 500 631.5 Q 502.5 630 499 628.5 L 495.5 622 Q 492.9 622.8 494 619.5 Q 496.5 618 495 612.5 L 494 608.5 L 497 607.5 L 500 601.5 L 499.5 600 L 501.5 601 L 507 596.5 L 506.5 595 L 509.5 596 L 516.5 594 Z M 514 603 L 510 605 L 510 606 Q 512 605 511 609 L 512 612 Q 509 613 510 610 L 508 610 L 510 609 L 509 606 L 506 610 L 507 612 L 505 612 L 506 623 L 510 626 L 511 625 L 510 627 L 514 628 L 514 626 Q 516 625 515 628 L 519 629 L 525 627 L 530 621 Q 532 611 528 608 L 524 604 Q 521 603 522 606 L 521 606 L 522 604 L 514 603 Z " /><path fill="rgb(247,247,247)" stroke="rgb(247,247,247)" stroke-width="1" opacity="0.8549019607843137" d="M 864.5 594 L 865.5 596 L 867 595.5 Q 865.5 598.5 864 595.5 L 864.5 594 Z " /><path fill="rgb(247,247,247)" stroke="rgb(247,247,247)" stroke-width="1" opacity="0.8549019607843137" d="M 435 595 L 444.5 595 L 445.5 596 L 447 595.5 L 446 597.5 L 448.5 601 L 450.5 600 L 450.5 601 Q 448.3 600.3 449 602.5 L 456 614 Q 458.7 615.1 458 612.5 L 457.5 611 L 459 611.5 L 469 595 L 477.5 595 L 479 596.5 L 479 631.5 L 480 632.5 L 478 635.5 L 478.5 637 L 475.5 639 L 471 637.5 L 474 636.5 Q 468.6 637.4 467 634.5 L 469 634 Q 471 631 470 623.5 L 468 614 Q 471.3 615.3 470 610.5 L 469 610.5 L 457.5 629 L 454 626.5 L 451.5 622 L 449 623.5 L 451 620.5 L 449 620.5 L 450 618.5 L 445.5 612 L 445 613.5 L 446 616 L 444 616.5 L 444 637.5 L 441.5 638 L 439.5 638 L 438 637.5 L 442 636.5 L 435 636 L 435 595 Z " /><path fill="rgb(247,247,247)" stroke="rgb(247,247,247)" stroke-width="1" opacity="0.8549019607843137" d="M 556 595 L 575.5 595 L 580.5 596 L 583.5 595 L 583.5 596 L 581 596.5 Q 589.6 598.4 593 605.5 Q 596 610.5 595 619.5 Q 593.5 627 588.5 631 L 582 634.5 L 584 635.5 L 580.5 637 L 580.5 636 L 582 635.5 L 578.5 635 L 573 636 L 572.5 638 L 572 636 L 565 636.5 L 568 637.5 L 565.5 639 Q 563.7 636.3 557.5 638 L 556 636.5 L 556 595 Z M 572 603 L 565 604 L 566 607 L 565 608 L 565 628 Q 576 630 582 625 L 585 620 Q 586 613 584 610 Q 582 605 581 608 L 575 606 L 578 605 L 572 603 Z M 558 636 L 558 637 L 564 637 L 558 636 Z " /><path fill="rgb(247,247,247)" stroke="rgb(247,247,247)" stroke-width="1" opacity="0.8549019607843137" d="M 658.5 595 Q 660.8 595.8 660 599.5 L 659 599.5 L 658 597.5 L 658.5 595 Z " /><path fill="rgb(247,247,247)" stroke="rgb(247,247,247)" stroke-width="1" opacity="0.8549019607843137" d="M 661 595 L 682.5 595 L 692 599 L 695 606.5 L 695 610.5 L 689.5 619 L 686 620.5 L 687 623 Q 689.7 621.9 689 624.5 L 693.5 630 L 695 630.5 L 694 631.5 L 697 634.5 L 697 636 L 693 636 L 693 638 L 687.5 638 L 687.5 637 L 692 636.5 Q 685.7 637.3 684 633.5 L 679.5 627 L 678 626.5 Q 680.7 624.8 676.5 623 L 673.5 622 L 671.5 625 L 670 624.5 L 670 632.5 L 671 633.5 L 670 636 L 661 636 L 661 629.5 L 660 629.5 L 659.5 632 Q 660.3 626.2 657 624.5 L 660 624.5 L 660.5 628 L 661 595 Z M 671 603 L 670 611 L 671 611 L 671 603 Z M 672 603 L 673 606 Q 671 607 672 613 L 670 613 L 671 614 L 682 614 Q 685 612 684 610 Q 686 611 685 607 Q 684 604 683 606 L 680 606 L 683 605 Q 679 602 672 603 Z " /><path fill="rgb(247,247,247)" stroke="rgb(247,247,247)" stroke-width="1" opacity="0.8549019607843137" d="M 714.5 595 Q 720 593.5 721.5 596 L 723 595.5 L 722 597.5 Q 723.7 601.7 725.5 599 L 727 599.5 L 725 600.5 L 741.5 620 L 742 596.5 L 743.5 595 L 751.5 595 L 752 597.5 L 751 598.5 L 751 631.5 L 752 634.5 L 751 636.5 Q 753.2 637.8 750.5 639 L 747.5 638 L 744 639 L 745 636.5 L 743 636 L 729.5 619 L 728 619.5 Q 730.8 617.8 726.5 616 L 724 615.5 L 725 613.5 L 722 611.5 L 722 632.5 L 725.5 633 L 725.5 634 L 722 634 Q 723.3 637 719.5 636 L 717 636.5 L 716.5 639 L 714.5 636 L 713 635.5 L 713 618.5 L 713 616.5 L 713 596.5 L 714.5 595 Z " /><path fill="rgb(247,247,247)" stroke="rgb(247,247,247)" stroke-width="1" opacity="0.8549019607843137" d="M 726.5 595 L 725.5 597 L 724 596.5 L 726.5 595 Z " /><path fill="rgb(247,247,247)" stroke="rgb(247,247,247)" stroke-width="1" opacity="0.8549019607843137" d="M 802.5 595 Q 808 593.5 809.5 596 L 811 595.5 L 810 596.5 L 810 626.5 L 809 627.5 L 829.5 628 L 829.5 627 L 828 626.5 L 829.5 626 L 832 627.5 L 830 628 L 830.5 632 L 832 631.5 L 830 636 L 822 636.5 L 826 637.5 L 820 638 L 819.5 636 L 805 636 Q 806.3 639.3 801.5 638 L 801.5 637 L 804 636.5 L 800 634.5 L 801 630.5 L 801 628.5 L 800 624.5 L 801 622.5 L 800.5 620 L 799 619.5 L 801 615.5 L 801 604.5 L 800 603.5 L 801 600.5 L 800 597.5 Q 799.3 595.3 801.5 596 L 802.5 595 Z " /><path fill="rgb(247,247,247)" stroke="rgb(247,247,247)" stroke-width="1" opacity="0.8549019607843137" d="M 845 595 L 853.5 595 L 854 596.5 L 855 598.5 L 854 599.5 L 854 613.5 L 855 615.5 Q 852.5 617 854 622.5 L 854 624.5 L 855 633.5 L 854 636 L 846.5 636 L 846 637.5 L 845 637.5 L 845 595 Z " /><path fill="rgb(247,247,247)" stroke="rgb(247,247,247)" stroke-width="1" opacity="0.8549019607843137" d="M 644 596 L 646 596.5 L 644.5 600 L 644 596 Z " /><path fill="rgb(247,247,247)" stroke="rgb(247,247,247)" stroke-width="1" opacity="0.8549019607843137" d="M 843.5 596 L 844 599.5 L 843 599.5 L 843.5 596 Z " /><path fill="rgb(247,247,247)" stroke="rgb(247,247,247)" stroke-width="1" opacity="0.8549019607843137" d="M 433.5 598 L 434 600.5 L 433 600.5 L 433.5 598 Z " /><path fill="rgb(247,247,247)" stroke="rgb(247,247,247)" stroke-width="1" opacity="0.8549019607843137" d="M 644 601 L 646 601.5 L 644 602.5 L 644 601 Z " /><path fill="rgb(247,247,247)" stroke="rgb(247,247,247)" stroke-width="1" opacity="0.8549019607843137" d="M 658.5 601 L 660 601.5 L 660 611.5 L 659 611.5 Q 659.8 603.3 658.5 601 Z " /><path fill="rgb(247,247,247)" stroke="rgb(247,247,247)" stroke-width="1" opacity="0.8549019607843137" d="M 922.5 602 L 923 606.5 L 922 606.5 L 922.5 602 Z " /><path fill="rgb(247,247,247)" stroke="rgb(247,247,247)" stroke-width="1" opacity="0.8549019607843137" d="M 675.5 604 L 678 604.5 L 675.5 605 L 675.5 604 Z " /><path fill="rgb(247,247,247)" stroke="rgb(247,247,247)" stroke-width="1" opacity="0.8549019607843137" d="M 843.5 605 L 844 616.5 L 843 616.5 L 843.5 605 Z " /><path fill="rgb(247,247,247)" stroke="rgb(247,247,247)" stroke-width="1" opacity="0.8549019607843137" d="M 1028.5 606 L 1029 607.5 L 1028 609.5 L 1028.5 611 L 1026 610 L 1026 608 Q 1028.8 609 1028.5 606 Z " /><path fill="rgb(247,247,247)" stroke="rgb(247,247,247)" stroke-width="1" opacity="0.8549019607843137" d="M 567.5 607 L 566.5 609 L 567.5 607 Z " /><path fill="rgb(247,247,247)" stroke="rgb(247,247,247)" stroke-width="1" opacity="0.8549019607843137" d="M 609.5 607 L 610 609.5 L 609 609.5 L 609.5 607 Z " /><path fill="rgb(247,247,247)" stroke="rgb(247,247,247)" stroke-width="1" opacity="0.8549019607843137" d="M 621.5 607 L 622 609.5 L 621 609.5 L 621.5 607 Z " /><path fill="rgb(247,247,247)" stroke="rgb(247,247,247)" stroke-width="1" opacity="0.8549019607843137" d="M 952.5 607 L 953 613.5 L 952 613.5 L 952.5 607 Z " /><path fill="rgb(247,247,247)" stroke="rgb(247,247,247)" stroke-width="1" opacity="0.8549019607843137" d="M 635.5 608 L 639 609.5 L 635 610 L 635.5 608 Z " /><path fill="rgb(247,247,247)" stroke="rgb(247,247,247)" stroke-width="1" opacity="0.8549019607843137" d="M 981.5 608 L 982 610.5 L 981.5 613 L 980 610.5 L 981.5 608 Z " /><path fill="rgb(247,247,247)" stroke="rgb(247,247,247)" stroke-width="1" opacity="0.8549019607843137" d="M 908.5 609 L 907.5 611 L 908.5 609 Z " /><path fill="rgb(247,247,247)" stroke="rgb(247,247,247)" stroke-width="1" opacity="0.8549019607843137" d="M 1024.5 609 L 1025 610.5 L 1023 611.5 L 1024.5 609 Z " /><path fill="rgb(247,247,247)" stroke="rgb(247,247,247)" stroke-width="1" opacity="0.8549019607843137" d="M 566.5 610 Q 569.3 611.3 567 612.5 L 566.5 614 L 566.5 610 Z " /><path fill="rgb(247,247,247)" stroke="rgb(247,247,247)" stroke-width="1" opacity="0.8549019607843137" d="M 596.5 611 L 597.5 613 Q 594.7 613.7 596.5 611 Z " /><path fill="rgb(247,247,247)" stroke="rgb(247,247,247)" stroke-width="1" opacity="0.8549019607843137" d="M 922.5 611 L 923 616.5 L 922 616.5 L 922.5 611 Z " /><path fill="rgb(247,247,247)" stroke="rgb(247,247,247)" stroke-width="1" opacity="0.8549019607843137" d="M 554.5 613 L 555 615.5 L 554 615.5 L 554.5 613 Z " /><path fill="rgb(247,247,247)" stroke="rgb(247,247,247)" stroke-width="1" opacity="0.8549019607843137" d="M 657.5 616 L 660 617 L 659.5 623 Q 659.5 617.5 657.5 616 Z " /><path fill="rgb(247,247,247)" stroke="rgb(247,247,247)" stroke-width="1" opacity="0.8549019607843137" d="M 952.5 616 L 953 621.5 L 952 621.5 L 952.5 616 Z " /><path fill="rgb(247,247,247)" stroke="rgb(247,247,247)" stroke-width="1" opacity="0.8549019607843137" d="M 1027.5 616 L 1026.5 618 L 1027.5 616 Z " /><path fill="rgb(247,247,247)" stroke="rgb(247,247,247)" stroke-width="1" opacity="0.8549019607843137" d="M 445.5 617 L 447 619.5 L 445 620.5 L 445 618.5 L 445.5 617 Z " /><path fill="rgb(247,247,247)" stroke="rgb(247,247,247)" stroke-width="1" opacity="0.8549019607843137" d="M 433.5 618 L 434 621.5 L 433 621.5 L 433.5 618 Z " /><path fill="rgb(247,247,247)" stroke="rgb(247,247,247)" stroke-width="1" opacity="0.8549019607843137" d="M 566.5 618 L 567 623.5 L 566 623.5 L 566.5 618 Z " /><path fill="rgb(247,247,247)" stroke="rgb(247,247,247)" stroke-width="1" opacity="0.8549019607843137" d="M 554.5 619 L 555 621.5 L 554 621.5 L 554.5 619 Z " /><path fill="rgb(247,247,247)" stroke="rgb(247,247,247)" stroke-width="1" opacity="0.8549019607843137" d="M 922.5 619 L 923 622.5 L 922 622.5 L 922.5 619 Z " /><path fill="rgb(247,247,247)" stroke="rgb(247,247,247)" stroke-width="1" opacity="0.8549019607843137" d="M 729.5 621 L 730.5 623 Q 727.7 623.7 729.5 621 Z " /><path fill="rgb(247,247,247)" stroke="rgb(247,247,247)" stroke-width="1" opacity="0.8549019607843137" d="M 843.5 621 L 844 624.5 L 843 624.5 L 843.5 621 Z " /><path fill="rgb(247,247,247)" stroke="rgb(247,247,247)" stroke-width="1" opacity="0.8549019607843137" d="M 964.5 621 L 965 625.5 L 964 625.5 L 964.5 621 Z " /><path fill="rgb(247,247,247)" stroke="rgb(247,247,247)" stroke-width="1" opacity="0.8549019607843137" d="M 1023.5 621 L 1024.5 623 L 1022.5 623 L 1020 622.5 L 1023.5 621 Z " /><path fill="rgb(247,247,247)" stroke="rgb(247,247,247)" stroke-width="1" opacity="0.8549019607843137" d="M 433.5 623 L 434 625.5 L 433 625.5 L 433.5 623 Z " /><path fill="rgb(247,247,247)" stroke="rgb(247,247,247)" stroke-width="1" opacity="0.8549019607843137" d="M 517.5 625 L 516.5 627 L 517.5 625 Z " /><path fill="rgb(247,247,247)" stroke="rgb(247,247,247)" stroke-width="1" opacity="0.8549019607843137" d="M 644 625 L 646 625.5 L 644 626.5 L 644 625 Z " /><path fill="rgb(247,247,247)" stroke="rgb(247,247,247)" stroke-width="1" opacity="0.8549019607843137" d="M 723.5 628 L 724 630.5 L 723 630.5 L 723.5 628 Z " /><path fill="rgb(247,247,247)" stroke="rgb(247,247,247)" stroke-width="1" opacity="0.8549019607843137" d="M 554.5 629 L 555 631.5 L 554 631.5 L 554.5 629 Z " /><path fill="rgb(247,247,247)" stroke="rgb(247,247,247)" stroke-width="1" opacity="0.8549019607843137" d="M 922.5 629 L 923 631.5 L 922 631.5 L 922.5 629 Z " /><path fill="rgb(247,247,247)" stroke="rgb(247,247,247)" stroke-width="1" opacity="0.8549019607843137" d="M 433.5 632 L 434 634.5 L 432 633.5 L 433.5 632 Z " /><path fill="rgb(247,247,247)" stroke="rgb(247,247,247)" stroke-width="1" opacity="0.8549019607843137" d="M 608 632 L 610 632.5 L 608.5 635 L 608 632 Z " /><path fill="rgb(247,247,247)" stroke="rgb(247,247,247)" stroke-width="1" opacity="0.8549019607843137" d="M 657.5 632 L 660 633 L 659.5 635 L 657.5 632 Z " /><path fill="rgb(247,247,247)" stroke="rgb(247,247,247)" stroke-width="1" opacity="0.8549019607843137" d="M 445 633 L 447 633.5 L 445.5 637 L 445 634.5 L 445 633 Z " /><path fill="rgb(247,247,247)" stroke="rgb(247,247,247)" stroke-width="1" opacity="0.8549019607843137" d="M 724.5 635 L 725.5 637 L 724.5 635 Z " /><path fill="rgb(247,247,247)" stroke="rgb(247,247,247)" stroke-width="1" opacity="0.8549019607843137" d="M 639.5 637 L 643 637.5 L 639.5 638 L 639.5 637 Z " /><path fill="rgb(247,247,247)" stroke="rgb(247,247,247)" stroke-width="1" opacity="0.8549019607843137" d="M 663.5 637 L 666 637.5 L 663.5 638 L 663.5 637 Z " /><path fill="rgb(247,247,247)" stroke="rgb(247,247,247)" stroke-width="1" opacity="0.8549019607843137" d="M 720.5 637 L 723 637.5 Q 720.9 640.8 720.5 637 Z " /><path fill="rgb(247,247,247)" stroke="rgb(247,247,247)" stroke-width="1" opacity="0.8549019607843137" d="M 847.5 637 Q 852.9 635.1 852 638.5 L 850.5 638 Q 846.5 638.8 847.5 637 Z " /><path fill="rgb(247,247,247)" stroke="rgb(247,247,247)" stroke-width="1" opacity="0.8549019607843137" d="M 964.5 638 L 965.5 640 L 964.5 638 Z " /><path fill="rgb(247,247,247)" stroke="rgb(247,247,247)" stroke-width="1" opacity="0.8549019607843137" d="M 1044.5 715 L 1045.5 717 L 1044.5 715 Z " /></svg>